<?xml version="1.0" standalone="no"?>
<!DOCTYPE svg PUBLIC "-//W3C//DTD SVG 1.1//EN" "http://www.w3.org/Graphics/SVG/1.1/DTD/svg11.dtd" >
<svg xmlns="http://www.w3.org/2000/svg" xmlns:xlink="http://www.w3.org/1999/xlink" version="1.1">
<metadata></metadata>
<defs>
<font id="kohomedium_italic" horiz-adv-x="1228" >
<font-face units-per-em="2048" ascent="1638" descent="-410" />
<missing-glyph horiz-adv-x="530" />
<glyph horiz-adv-x="0" />
<glyph unicode="&#xd;" horiz-adv-x="530" />
<glyph horiz-adv-x="0" />
<glyph horiz-adv-x="0" />
<glyph unicode=" "  horiz-adv-x="530" />
<glyph unicode="&#x09;" horiz-adv-x="530" />
<glyph unicode="&#xa0;" horiz-adv-x="530" />
<glyph unicode="!" horiz-adv-x="559" d="M88 76q0 57 44 101t101 44q43 0 73 -29.5t30 -72.5q0 -55 -44 -98.5t-102 -43.5q-45 0 -73.5 29t-28.5 70zM199 395l153 1039h193l-211 -1039h-135z" />
<glyph unicode="&#x22;" horiz-adv-x="720" d="M227 999l66 449h166l-92 -449h-140zM539 999l65 449h164l-90 -449h-139z" />
<glyph unicode="#" horiz-adv-x="1146" d="M68 422l24 131h219l101 328h-222l25 131h236l127 422h139l-127 -422h221l127 422h139l-127 -422h213l-22 -131h-230l-100 -328h227l-22 -131h-244l-127 -422h-139l127 422h-221l-127 -422h-140l127 422h-204zM451 553h221l100 328h-221z" />
<glyph unicode="$" horiz-adv-x="1275" d="M41 233l154 113q57 -106 138 -157.5t199 -57.5l89 510l-48 10q-164 37 -252 118t-88 222q0 133 64.5 236.5t184.5 163t284 65.5l39 223h115l-41 -227q303 -25 397 -227l-150 -107q-92 156 -274 180l-88 -503q127 -27 214 -62t143.5 -103.5t56.5 -183.5q0 -129 -68 -231 t-193.5 -163.5t-298.5 -71.5l-38 -226h-115l39 223q-174 8 -281.5 71t-181.5 185zM432 1014q0 -82 58.5 -126t162.5 -71l84 483q-141 -12 -223 -88.5t-82 -197.5zM647 135q154 19 243 96.5t89 196.5q0 76 -62.5 117t-185.5 71z" />
<glyph unicode="%" horiz-adv-x="1908" d="M160 875q0 23 8 80l43 244q27 156 117 235.5t235 79.5q129 0 201 -62.5t72 -179.5q0 -33 -6 -73l-43 -244q-59 -322 -351 -322q-133 0 -204.5 62.5t-71.5 179.5zM297 891q0 -72 37 -110.5t106 -38.5q82 0 136.5 55t72.5 158l45 244q6 31 6 59q0 72 -36.5 109.5 t-106.5 37.5q-84 0 -138 -53t-71 -153l-45 -244q-6 -33 -6 -64zM385 0l1108 1434h133l-1108 -1434h-133zM1157 170q0 23 8 80l43 244q27 156 117 235.5t235 79.5q129 0 201 -62.5t72 -179.5q0 -33 -6 -73l-43 -244q-59 -322 -351 -322q-133 0 -204.5 62.5t-71.5 179.5z M1294 186q0 -72 37 -110.5t106 -38.5q82 0 136.5 55t72.5 158l45 244q6 31 6 59q0 72 -36.5 109.5t-106.5 37.5q-84 0 -138 -53t-71 -153l-45 -244q-6 -33 -6 -64z" />
<glyph unicode="&#x26;" horiz-adv-x="1392" d="M57 315q0 172 102.5 279.5t286.5 202.5q-59 86 -88.5 152.5t-29.5 135.5q0 106 52 190.5t147.5 132.5t215.5 48q147 0 237.5 -70.5t90.5 -195.5q0 -141 -92 -237.5t-272 -194.5l268 -367q98 141 166 363h194q-92 -320 -254 -506l181 -248h-238l-84 117 q-195 -139 -453 -140q-199 0 -314.5 92.5t-115.5 245.5zM252 336q0 -94 68.5 -149.5t187.5 -55.5q191 0 336 117l-307 424q-133 -68 -209 -141.5t-76 -194.5zM522 1094q0 -49 21.5 -95.5t70.5 -115.5q131 68 197 130t66 156q0 61 -40 96t-106 35q-90 0 -149.5 -58 t-59.5 -148z" />
<glyph unicode="'" horiz-adv-x="409" d="M227 999l66 449h166l-92 -449h-140z" />
<glyph unicode="(" horiz-adv-x="604" d="M139 385q0 305 92.5 560t198 410.5t217.5 284.5l103 -67q-158 -193 -301.5 -491t-143.5 -689q0 -309 131 -590l-125 -67q-80 153 -126 305t-46 344z" />
<glyph unicode=")" horiz-adv-x="604" d="M-72 -197q158 193 301.5 492t143.5 690q0 172 -36 314.5t-97 273.5l125 67q82 -152 128 -304t46 -345q0 -305 -92.5 -560t-200 -412.5t-217.5 -282.5z" />
<glyph unicode="*" horiz-adv-x="935" d="M197 1155l18 98h303l-104 263l94 51l104 -262l199 262l78 -51l-197 -263h301l-18 -98h-301l104 -262l-94 -51l-104 262l-199 -262l-78 51l197 262h-303z" />
<glyph unicode="+" horiz-adv-x="1404" d="M141 543l25 139h498l88 502h149l-88 -502h498l-25 -139h-500l-88 -502h-149l88 502h-496z" />
<glyph unicode="," horiz-adv-x="448" d="M0 -211q123 94 152 199q-25 -12 -54 -13q-35 0 -54 21.5t-19 56.5q0 61 48 112.5t105 51.5q49 0 76 -26.5t27 -77.5q0 -102 -65.5 -201.5t-168.5 -177.5z" />
<glyph unicode="-" horiz-adv-x="761" d="M100 444l23 125h549l-23 -125h-549z" />
<glyph unicode="." horiz-adv-x="495" d="M57 76q0 57 44 101t102 44q43 0 71.5 -29.5t28.5 -72.5q0 -55 -43 -98.5t-100 -43.5q-45 0 -74 29t-29 70z" />
<glyph unicode="/" horiz-adv-x="884" d="M-123 -162l1065 1761h150l-1065 -1761h-150z" />
<glyph unicode="0" horiz-adv-x="1236" d="M121 379q0 68 12 141l72 406q47 262 189.5 396t379.5 134q207 0 317.5 -101.5t110.5 -291.5q0 -63 -12 -137l-74 -406q-94 -543 -565 -543q-207 0 -318.5 104.5t-111.5 297.5zM301 391q0 -133 64.5 -202.5t187.5 -69.5q152 0 251 102.5t132 298.5l74 406q12 66 12 121 q0 133 -65.5 200.5t-192.5 67.5q-152 0 -248 -98.5t-131 -290.5l-72 -406q-12 -70 -12 -129z" />
<glyph unicode="1" horiz-adv-x="790" d="M205 1075l28 164l367 195h170l-252 -1434h-180l223 1266z" />
<glyph unicode="2" horiz-adv-x="1212" d="M14 0l23 137l557 424q205 156 309.5 278t104.5 259q0 106 -79 160.5t-206 54.5q-227 0 -387 -160l-57 127q111 100 230.5 137t246.5 37q184 0 309 -85t125 -257q0 -145 -92 -279.5t-285 -283.5l-528 -408h770l-25 -141h-1016z" />
<glyph unicode="3" horiz-adv-x="1265" d="M49 186l123 105q70 -86 157 -129t214 -43q180 0 292.5 90t112.5 244q0 227 -358 227q-82 0 -187 -12v120q225 8 362.5 42t201 102.5t63.5 181.5q0 94 -75.5 147.5t-206.5 53.5q-231 0 -392 -160l-61 125q193 176 479 176q195 0 317.5 -81t122.5 -232q0 -145 -89 -247.5 t-244 -143.5q112 -27 179.5 -103t67.5 -188q0 -141 -74.5 -252t-210.5 -171.5t-313 -60.5q-158 0 -284.5 50.5t-196.5 158.5z" />
<glyph unicode="4" horiz-adv-x="1284" d="M45 428l926 1006h229l-174 -998h195l-25 -141h-197l-51 -295h-170l53 295h-747zM233 436h623l148 838z" />
<glyph unicode="5" horiz-adv-x="1286" d="M51 178l123 105q63 -102 157.5 -133t221.5 -31q190 0 306 107.5t116 285.5q0 127 -90 187.5t-264 60.5q-129 0 -297 -43l-76 112l166 605h831l-26 -142h-684l-111 -413q100 27 221 26q254 0 383 -96t129 -285q0 -164 -75.5 -287.5t-215 -191.5t-325.5 -68q-156 0 -284 40 t-206 161z" />
<glyph unicode="6" horiz-adv-x="1222" d="M109 387q0 256 117.5 479.5t329.5 378t482 211.5l41 -133q-246 -43 -438 -204t-283 -386q70 66 160 99.5t193 33.5q194 0 303.5 -96t109.5 -262q0 -158 -71.5 -278.5t-202.5 -186.5t-303 -66q-207 0 -322.5 110t-115.5 300zM293 397q0 -131 66.5 -204.5t197.5 -73.5 q113 0 200 48t136 134t49 197q0 109 -72.5 168t-205.5 59q-219 0 -359 -178q-12 -74 -12 -150z" />
<glyph unicode="7" horiz-adv-x="1140" d="M176 0q359 612 881 1292h-787l25 142h901l43 -142q-217 -279 -453.5 -622.5t-418.5 -669.5h-191z" />
<glyph unicode="8" horiz-adv-x="1202" d="M84 313q0 158 96 276t266 181q-92 41 -141 108.5t-49 157.5q0 121 64.5 217.5t180 149.5t263.5 53q182 0 288.5 -81t106.5 -216q0 -125 -82 -229.5t-221 -159.5q111 -41 169 -118t58 -189q0 -145 -68.5 -255t-194.5 -170.5t-296 -60.5q-202 0 -321 89.5t-119 246.5z M264 326q0 -102 71 -157.5t202 -55.5q165 0 265.5 92t100.5 246q0 90 -55 144t-174 85l-60 16q-168 -45 -259 -141t-91 -229zM436 1044q0 -145 199 -194l43 -10q145 39 223 116.5t78 186.5q0 86 -60.5 133t-168.5 47q-139 0 -226.5 -77t-87.5 -202z" />
<glyph unicode="9" horiz-adv-x="1224" d="M184 930q0 158 72 276.5t202 184t302 65.5q205 0 322.5 -107.5t117.5 -297.5q0 -258 -118.5 -482.5t-329.5 -379t-482 -212.5l-41 134q248 43 441.5 204.5t283.5 389.5q-150 -137 -356 -138q-193 0 -303.5 98.5t-110.5 264.5zM367 936q0 -109 72.5 -168t205.5 -59 q111 0 203 46t158 134q12 72 12 145q0 131 -69.5 206t-200.5 75q-111 0 -198 -48t-135 -134t-48 -197z" />
<glyph unicode=":" horiz-adv-x="495" d="M57 76q0 57 44 101t102 44q43 0 71.5 -29.5t28.5 -72.5q0 -55 -43 -98.5t-100 -43.5q-45 0 -74 29t-29 70zM182 795q0 55 44 100t102 45q45 0 73.5 -29.5t28.5 -72.5q0 -55 -44 -99.5t-99 -44.5q-45 0 -75 29t-30 72z" />
<glyph unicode=";" horiz-adv-x="493" d="M27 -211q66 51 102.5 98t50.5 101q-25 -12 -55 -13q-33 0 -52.5 21.5t-19.5 56.5q0 61 48.5 112.5t105.5 51.5q47 0 73.5 -26.5t26.5 -77.5q0 -104 -64.5 -202.5t-168.5 -176.5zM180 795q0 55 44 100t100 45q45 0 73.5 -29.5t28.5 -72.5q0 -55 -44 -99.5t-99 -44.5 q-45 0 -74 29t-29 72z" />
<glyph unicode="&#x3c;" horiz-adv-x="1042" d="M119 594q309 127 547.5 284.5t373.5 327.5l-32 -184q-248 -248 -641 -428q162 -90 287.5 -199.5t201.5 -228.5l-33 -186q-75 174 -257.5 330.5t-446.5 283.5z" />
<glyph unicode="=" horiz-adv-x="1400" d="M111 369l24 139h1141l-27 -139h-1138zM178 750l25 139h1138l-24 -139h-1139z" />
<glyph unicode="&#x3e;" horiz-adv-x="1042" d="M41 -20l33 186q242 242 639 428q-160 88 -284 196.5t-204 231.5l33 184q76 -172 258 -329.5t447 -282.5q-311 -127 -549 -284.5t-373 -329.5z" />
<glyph unicode="?" horiz-adv-x="1038" d="M186 1141q53 154 175 235.5t305 81.5q184 0 288.5 -81t104.5 -216q0 -145 -67.5 -243.5t-157.5 -172.5q-127 -100 -172.5 -147t-53.5 -90l-16 -102h-180l18 102q8 47 29.5 84t71 84t149.5 129q86 72 142.5 150.5t56.5 189.5q0 80 -59.5 127t-166.5 47 q-113 0 -188.5 -58.5t-122.5 -183.5zM322 76q0 57 45 101t102 44q45 0 73.5 -29.5t28.5 -72.5q0 -53 -44 -97.5t-101 -44.5q-45 0 -74.5 29t-29.5 70z" />
<glyph unicode="@" horiz-adv-x="1880" d="M43 291q0 309 147.5 565t401.5 402.5t559 146.5q221 0 380 -79t241.5 -222t82.5 -338q0 -201 -70.5 -364.5t-194.5 -257t-277 -93.5q-104 0 -158.5 45t-58.5 107q-78 -78 -165 -115t-196 -37q-137 0 -215 76t-78 205q0 76 39 200q57 190 189.5 311.5t322.5 121.5 q104 0 165 -37t83 -94l37 110h166l-193 -606q-16 -45 -16 -82q0 -92 104 -92q109 0 200 81t143.5 219t52.5 300q0 252 -151.5 389t-442.5 137q-270 0 -493.5 -132t-352.5 -361.5t-129 -505.5q0 -256 165 -390t480 -134q150 0 284 35.5t240 101.5l47 -103 q-127 -72 -277.5 -110.5t-313.5 -38.5q-362 0 -555 169t-193 470zM610 358q0 -84 45 -131t133 -47q190 0 306 182l92 291q2 182 -189 183q-117 0 -212 -83t-138 -214q-25 -78 -31 -109t-6 -72z" />
<glyph unicode="A" horiz-adv-x="1370" d="M-29 0l572 1180q72 152 139.5 214t173.5 62t153.5 -61.5t65.5 -214.5l158 -1180h-197l-53 418h-616l-201 -418h-195zM436 567h529l-76 611q-8 53 -21.5 75.5t-40.5 22.5q-31 0 -51 -22.5t-47 -75.5z" />
<glyph unicode="B" horiz-adv-x="1380" d="M104 0l252 1434h609q176 0 276 -80t100 -219q0 -133 -82.5 -237.5t-220.5 -141.5q106 -27 167 -98.5t61 -184.5q0 -137 -69 -244.5t-189.5 -168t-276.5 -60.5h-627zM326 154h387q168 0 263 85t95 234q0 100 -68.5 150.5t-197.5 50.5h-387zM444 827h420q76 0 141.5 37 t103.5 100.5t38 137.5q0 84 -53.5 131t-149.5 47h-420z" />
<glyph unicode="C" horiz-adv-x="1298" d="M119 387q0 47 10 113l78 436q45 256 209 388t434 132q186 0 312 -61.5t186 -180.5l-156 -98q-51 96 -133 141.5t-215 45.5q-188 0 -299 -93.5t-144 -273.5l-77 -436q-8 -47 -9 -97q0 -133 83 -202.5t245 -69.5q141 0 241.5 46t188.5 149l119 -105q-115 -127 -244 -185.5 t-311 -58.5q-250 0 -384 106.5t-134 303.5z" />
<glyph unicode="D" horiz-adv-x="1441" d="M104 0l252 1434h504q272 0 404.5 -119t132.5 -365q0 -299 -90 -512t-261.5 -325.5t-410.5 -112.5h-531zM326 154h315q176 0 303 93t193.5 271t66.5 428q0 172 -88 253t-270 81h-322z" />
<glyph unicode="E" horiz-adv-x="1189" d="M102 319q0 63 11 115l100 565q39 219 168 327t371 108h512l-27 -154h-492q-145 0 -228 -66.5t-109 -214.5l-37 -204h680l-27 -156h-680l-37 -205q-8 -39 -8 -82q0 -100 61.5 -149t186.5 -49h500l-27 -154h-492q-217 0 -321.5 78t-104.5 241z" />
<glyph unicode="F" horiz-adv-x="1193" d="M53 0l176 999q37 217 167 326t372 109h510l-27 -154h-489q-143 0 -227 -66.5t-111 -214.5l-45 -245h680l-29 -156h-678l-104 -598h-195z" />
<glyph unicode="G" horiz-adv-x="1368" d="M119 387q0 47 10 113l78 436q45 258 210 389t439 131q197 0 324 -55t192 -168l-164 -109q-53 92 -138 135.5t-222 43.5q-381 0 -447 -367l-77 -436q-10 -57 -11 -99q0 -133 82 -201.5t246 -68.5q174 0 284.5 63.5t131.5 176.5l18 108q4 33 4 43q0 125 -139 125h-242 l27 154h289q264 0 264 -217q0 -41 -8 -82l-25 -144q-33 -180 -193.5 -280.5t-416.5 -100.5q-250 0 -383 106.5t-133 303.5z" />
<glyph unicode="H" horiz-adv-x="1476" d="M104 0l252 1434h195l-113 -637h713l113 637h194l-252 -1434h-194l112 641h-712l-113 -641h-195z" />
<glyph unicode="I" horiz-adv-x="569" d="M104 0l252 1434h195l-252 -1434h-195z" />
<glyph unicode="J" horiz-adv-x="1093" d="M-2 160l137 119q47 -78 110.5 -113t157.5 -35q143 0 233.5 70.5t113.5 204.5l180 1028h194l-180 -1031q-37 -209 -175 -317.5t-370 -108.5q-137 0 -235 44.5t-166 138.5z" />
<glyph unicode="K" horiz-adv-x="1384" d="M104 0l252 1434h195l-133 -758l839 758h234l-623 -555q107 -21 165.5 -68t86 -121t43.5 -196l64 -494h-195l-61 475q-12 90 -29.5 137t-70 81t-160.5 44l-334 -299l-78 -438h-195z" />
<glyph unicode="L" horiz-adv-x="1132" d="M117 315q0 66 10 119l178 1000h195l-178 -1000q-8 -61 -9 -82q0 -100 57.5 -149t178.5 -49h463l-27 -154h-455q-213 0 -313 78t-100 237z" />
<glyph unicode="M" horiz-adv-x="1691" d="M104 0l252 1434h109q74 0 119 -17.5t80.5 -67t68.5 -147.5l160 -467l319 467q86 127 162 179.5t189 52.5h108l-252 -1434h-180l219 1235q-27 -2 -53.5 -22.5t-56.5 -65.5l-510 -723l-258 723q-18 47 -34 66.5t-44 21.5l-217 -1235h-181z" />
<glyph unicode="N" horiz-adv-x="1480" d="M104 0l252 1434h226l428 -1266h12q31 0 48 24.5t28 90.5l202 1151h185l-207 -1180q-23 -129 -87.5 -191.5t-174.5 -62.5h-137l-392 1135l-198 -1135h-185z" />
<glyph unicode="O" horiz-adv-x="1394" d="M119 385q0 47 10 115l78 434q45 258 209 390t436 132q244 0 375 -106.5t131 -300.5q0 -47 -10 -115l-76 -434q-47 -258 -209 -390.5t-434 -132.5q-248 0 -379 105.5t-131 302.5zM315 408q0 -133 82 -205t238 -72q182 0 295.5 95.5t146.5 273.5l76 434q8 43 8 92 q0 133 -82 205t-237 72q-180 0 -295 -96.5t-146 -272.5l-77 -434q-8 -43 -9 -92z" />
<glyph unicode="P" horiz-adv-x="1292" d="M104 0l252 1434h578q197 0 301 -91.5t104 -265.5q0 -152 -66.5 -265.5t-186 -176t-277.5 -62.5h-410l-100 -573h-195zM426 727h401q145 0 231.5 96.5t86.5 249.5q0 100 -57.5 153.5t-163.5 53.5h-400z" />
<glyph unicode="Q" horiz-adv-x="1394" d="M119 383q0 49 10 117l78 434q45 258 209 390t436 132q244 0 375 -106.5t131 -300.5q0 -47 -10 -115l-76 -434q-41 -221 -166 -350.5t-332 -161.5q76 -100 307 -107l-30 -166q-203 4 -316.5 68.5t-154.5 196.5q-223 8 -342 112.5t-119 290.5zM315 408q0 -133 82 -205 t238 -72q182 0 295.5 95.5t146.5 273.5l76 434q8 43 8 92q0 133 -82 205t-237 72q-180 0 -295 -96.5t-146 -272.5l-77 -434q-8 -43 -9 -92z" />
<glyph unicode="R" horiz-adv-x="1372" d="M104 0l252 1434h600q176 0 281.5 -92.5t105.5 -245.5q0 -156 -96 -268.5t-256 -143.5q94 -35 131 -116t52 -218l34 -350h-207l-34 352q-10 102 -34 159.5t-78 86.5t-157 29h-288l-111 -627h-195zM436 780h402q137 0 224 86t87 221q0 92 -60.5 142.5t-162.5 50.5h-402z " />
<glyph unicode="S" horiz-adv-x="1275" d="M41 233l154 113q59 -113 147 -164t219 -51q193 0 305.5 81t112.5 216q0 66 -46 104.5t-115.5 60t-196.5 48.5l-48 10q-164 37 -252 118t-88 222q0 137 69 242.5t196 164t299 58.5q184 0 305 -59.5t174 -171.5l-150 -107q-109 184 -340 185q-164 0 -259 -79t-95 -210 q0 -96 76 -140.5t215 -70.5q145 -31 236.5 -62.5t155 -102.5t63.5 -192q0 -139 -77 -245.5t-219.5 -165t-334.5 -58.5q-193 0 -310.5 62.5t-195.5 193.5z" />
<glyph unicode="T" horiz-adv-x="1212" d="M197 1280l26 154h1102l-27 -154h-454l-226 -1280h-194l225 1280h-452z" />
<glyph unicode="U" horiz-adv-x="1374" d="M115 326q0 23 8 75l182 1033h195l-183 -1033q-4 -18 -4 -53q0 -104 80 -160.5t232 -56.5q172 0 277.5 69.5t127.5 200.5l182 1033h195l-182 -1033q-37 -203 -192.5 -314.5t-414.5 -111.5q-237 0 -370 93.5t-133 257.5z" />
<glyph unicode="V" horiz-adv-x="1333" d="M223 1434h195l133 -1178q4 -53 17.5 -75.5t39.5 -22.5q27 0 47.5 21.5t46.5 76.5l547 1178h197l-555 -1180q-74 -152 -136.5 -214.5t-164.5 -62.5q-107 0 -158 63.5t-70 213.5z" />
<glyph unicode="W" horiz-adv-x="1851" d="M229 1434h185l61 -1260q39 20 80 94l506 981l160 -981q6 -37 16 -58.5t29 -31.5l506 1256h186l-580 -1434h-61q-121 0 -177.5 50t-74.5 181l-84 557l-279 -557q-66 -131 -140.5 -181t-194.5 -50h-62z" />
<glyph unicode="X" horiz-adv-x="1202" d="M-78 0l608 731l-335 703h219l268 -560l465 560h217l-602 -725l342 -709h-223l-271 563l-469 -563h-219z" />
<glyph unicode="Y" horiz-adv-x="1196" d="M182 1434h215l256 -648l480 648h217l-635 -830l-107 -604h-194l106 604z" />
<glyph unicode="Z" horiz-adv-x="1202" d="M12 152q0 33 4 51l17 96l1007 981h-804l28 154h1010l-31 -172l-1044 -1022l-2 -15q-2 -8 -2 -20q0 -29 20.5 -40t56.5 -11h811l-26 -154h-846q-98 0 -148.5 36t-50.5 116z" />
<glyph unicode="[" horiz-adv-x="739" d="M53 -229l314 1781h462l-20 -129h-303l-268 -1523h303l-25 -129h-463z" />
<glyph unicode="\" horiz-adv-x="872" d="M182 1575h148l440 -1737h-149z" />
<glyph unicode="]" horiz-adv-x="739" d="M-29 -229l23 129h305l268 1523h-305l23 129h465l-314 -1781h-465z" />
<glyph unicode="^" horiz-adv-x="1280" d="M246 621q172 178 309 372.5t250 427.5q31 -233 99.5 -428.5t176.5 -371.5h-151q-111 186 -185 460q-180 -291 -346 -460h-153z" />
<glyph unicode="_" horiz-adv-x="1060" d="M-152 -375l23 121h1061l-21 -121h-1063z" />
<glyph unicode="`" d="M492 1419h194l111 -305h-150z" />
<glyph unicode="a" horiz-adv-x="1083" d="M61 217q0 166 112 244t312 98l144 16q90 10 121.5 33t37.5 80v-4v12q0 73 -44 115q-48 45 -140 45q-106 0 -167.5 -26.5t-127.5 -90.5l-106 88q72 82 168 120t245 38q168 0 260.5 -71.5t92.5 -196.5q0 -33 -6 -68l-76 -434q-4 -25 -4 -35q0 -27 13 -47t42 -49l-121 -107 q-53 35 -80.5 72t-34.5 84q-57 -72 -145 -114t-203 -42q-139 0 -216 63.5t-77 176.5zM238 231q0 -59 42 -89.5t121 -30.5q134 0 223 67.5t107 171.5l25 137q-45 -23 -154 -34l-123 -13q-115 -10 -178 -64t-63 -145z" />
<glyph unicode="b" horiz-adv-x="1183" d="M82 0l223 1262q4 25 4 32q0 31 -13 55.5t-42 53.5l119 98q61 -37 88.5 -79t27.5 -103q0 -37 -4 -57l-75 -424q59 70 144 108.5t177 38.5q170 0 266.5 -101.5t96.5 -271.5q0 -51 -9 -98l-10 -65q-33 -209 -164 -340.5t-323 -131.5q-103 0 -182.5 40t-120.5 108l-23 -125 h-180zM319 322q14 -100 79 -151.5t169 -51.5q129 0 216 91t112 239l10 65q6 41 6 76q0 113 -58 183.5t-171 70.5q-207 0 -307 -203z" />
<glyph unicode="c" horiz-adv-x="972" d="M82 268q0 37 6 74l49 279q33 174 152 269t311 95q133 0 227.5 -41t139.5 -117l-142 -102q-45 66 -96 92.5t-135 26.5q-111 0 -184.5 -59.5t-92.5 -163.5l-49 -279q-4 -18 -4 -51q0 -84 53.5 -128t157.5 -44q82 0 145.5 28.5t122.5 90.5l107 -103q-76 -82 -167 -120 t-214 -38q-186 0 -286.5 76t-100.5 215z" />
<glyph unicode="d" horiz-adv-x="1183" d="M90 350q0 55 8 99l11 65q20 131 86.5 238.5t172 170t238.5 62.5q106 0 181 -39t114 -104l74 420q2 10 2 28q0 31 -12.5 54.5t-40.5 50.5l123 106q59 -35 86.5 -77t27.5 -99q0 -29 -6 -63l-184 -1047q-4 -25 -4 -35q0 -27 12 -48t43 -48l-121 -107q-96 63 -108 152 q-131 -152 -340 -152q-170 0 -266.5 102.5t-96.5 270.5zM272 371q0 -117 59.5 -184.5t170.5 -67.5q207 0 309 203l55 321q-14 100 -75.5 150.5t-159.5 50.5q-131 0 -225.5 -92.5t-116.5 -237.5l-10 -65q-6 -39 -7 -78z" />
<glyph unicode="e" horiz-adv-x="1015" d="M80 256q0 45 8 84l53 305q29 160 144.5 250t298.5 90q174 0 274 -81t100 -224q0 -147 -59 -213t-192 -66h-431l-10 -63q-4 -18 -4 -53q0 -168 211 -168q84 0 152.5 24.5t134.5 79.5l92 -100q-76 -74 -170 -109t-215 -35q-190 0 -288.5 70t-98.5 209zM299 530h348 q70 0 100.5 33t30.5 115q0 80 -52 124t-146 44q-107 0 -175.5 -56.5t-87.5 -156.5z" />
<glyph unicode="f" horiz-adv-x="655" d="M84 0l195 1106q33 182 149.5 278.5t302.5 96.5h70l-25 -142h-67q-102 0 -166 -59t-84 -174l-25 -143h275l-25 -142h-274l-146 -821h-180z" />
<glyph unicode="g" horiz-adv-x="1183" d="M90 367q0 43 10 104l9 43q23 129 88 235.5t170.5 171t240.5 64.5q104 0 179 -41t116 -119q18 57 53 95t95 65l110 -106q-49 -35 -69.5 -61.5t-28.5 -69.5l-152 -863q-31 -178 -140 -265t-320 -87h-254l24 139h254q221 0 256 213l41 246q-121 -131 -321 -131 q-168 0 -264.5 101.5t-96.5 265.5zM272 389q0 -113 60.5 -180.5t173.5 -67.5q104 0 179 50.5t126 152.5l53 299q-31 201 -235 201q-129 0 -221.5 -92.5t-118.5 -237.5l-8 -43q-8 -57 -9 -82z" />
<glyph unicode="h" horiz-adv-x="1124" d="M82 0l223 1262q4 20 4 30q0 29 -13 51.5t-44 51.5l123 106q61 -37 89 -78t28 -98q0 -29 -7 -63l-82 -459q137 182 347 182q124 0 196 -66.5t72 -185.5q0 -35 -6 -76l-117 -657h-180l112 635q4 20 4 55q0 74 -38.5 114t-112.5 40q-104 0 -183 -72t-130 -178l-105 -594 h-180z" />
<glyph unicode="i" horiz-adv-x="530" d="M121 162q0 35 4 53l133 748h180l-133 -748q-2 -10 -2 -29q0 -29 13.5 -52t41.5 -50l-120 -107q-62 41 -89.5 84t-27.5 101zM285 1245q0 51 42 93t95 42q41 0 67.5 -27.5t26.5 -68.5q0 -51 -42 -92t-93 -41q-41 0 -68.5 26.5t-27.5 67.5z" />
<glyph unicode="j" horiz-adv-x="526" d="M-291 -467l27 141h92q117 0 180.5 55.5t83.5 178.5l187 1055h180l-187 -1055q-35 -195 -142 -285t-323 -90h-98zM307 1247q0 51 42 92t95 41q41 0 68 -27.5t27 -68.5q0 -51 -42 -92t-94 -41q-41 0 -68.5 27.5t-27.5 68.5z" />
<glyph unicode="k" horiz-adv-x="1067" d="M82 0l223 1262q4 20 4 30q0 29 -13 51.5t-44 51.5l123 106q61 -37 87.5 -78t26.5 -98q0 -29 -6 -63l-129 -734l506 435h221l-397 -340q104 -23 146 -91.5t55 -197.5l30 -334h-186l-29 334q-6 76 -38.5 112.5t-129.5 45.5l-217 -185l-53 -307h-180z" />
<glyph unicode="l" horiz-adv-x="512" d="M113 160q0 25 6 55l184 1049q4 25 4 32q0 27 -13 49.5t-42 49.5l121 106q59 -39 86.5 -82t27.5 -100q0 -37 -4 -55l-184 -1049q-4 -25 -4 -33q0 -27 13.5 -49t41.5 -49l-121 -107q-59 39 -87.5 82t-28.5 101z" />
<glyph unicode="m" horiz-adv-x="1683" d="M82 0l131 748q4 25 4 32q0 27 -13.5 50.5t-41.5 50.5l123 104q63 -37 91 -82q24 -39 24 -89q0 -7 -1 -15q135 186 336 186q109 0 170.5 -57.5t65.5 -161.5q135 219 358 219q117 0 183.5 -64.5t66.5 -181.5q0 -43 -8 -82l-115 -657h-180l110 635q6 35 7 63q0 70 -34 108 t-97 38q-102 0 -178 -75t-123 -185l-103 -584h-180l113 635q6 35 6 59q0 72 -34 111t-97 39q-104 0 -180 -76t-121 -184l-103 -584h-180z" />
<glyph unicode="n" horiz-adv-x="1124" d="M82 0l131 748q4 25 4 32q0 27 -13.5 50.5t-41.5 50.5l123 104q66 -37 92 -80q24 -40 24 -97v-9q61 84 148.5 135t200.5 51q124 0 196 -66.5t72 -185.5q0 -35 -6 -76l-117 -657h-178l110 635q4 20 4 55q0 74 -38.5 114t-112.5 40q-104 0 -182 -71t-129 -177l-107 -596 h-180z" />
<glyph unicode="o" horiz-adv-x="1062" d="M84 276q0 37 6 74l47 262q31 176 147.5 274.5t321.5 98.5q182 0 277.5 -80t95.5 -217q0 -35 -6 -76l-45 -262q-31 -174 -145.5 -273.5t-317.5 -99.5q-184 0 -282.5 81t-98.5 218zM266 295q0 -82 49.5 -129t151.5 -47q119 0 190.5 63.5t90.5 167.5l45 262q6 31 6 58 q0 80 -50.5 127t-154.5 47q-119 0 -188.5 -63.5t-88.5 -168.5l-47 -262q-4 -18 -4 -55z" />
<glyph unicode="p" horiz-adv-x="1183" d="M2 -449l211 1197q4 25 4 32q0 29 -12 49.5t-43 49.5l121 106q55 -35 82.5 -74t31.5 -90q127 164 342 164q168 0 261.5 -102.5t93.5 -270.5q0 -33 -9 -98l-10 -65q-31 -201 -156.5 -336.5t-326.5 -135.5q-106 0 -186 39t-123 109l-101 -574h-180zM319 322 q14 -100 79 -151.5t169 -51.5q129 0 216 91t112 239l10 65q6 41 6 76q0 113 -58 183.5t-171 70.5q-207 0 -307 -203z" />
<glyph unicode="q" horiz-adv-x="1142" d="M90 346q0 55 8 103l11 65q33 211 168 341t335 130q104 0 177 -38t110 -103l21 121h180l-248 -1414h-180l100 574q-55 -68 -142 -108t-186 -40q-166 0 -260 99.5t-94 269.5zM272 371q0 -117 59.5 -184.5t170.5 -67.5q207 0 309 203l55 321q-14 100 -75.5 150.5 t-159.5 50.5q-131 0 -225.5 -92.5t-116.5 -237.5l-10 -65q-6 -39 -7 -78z" />
<glyph unicode="r" horiz-adv-x="815" d="M82 0l131 748q4 25 4 32q0 27 -13.5 50.5t-41.5 50.5l123 104q61 -35 87.5 -75t26.5 -97q0 -23 -2 -37q125 209 322 209q43 0 87 -10t71 -33l-74 -158q-57 41 -139 41q-102 0 -179 -83t-129 -205l-94 -537h-180z" />
<glyph unicode="s" horiz-adv-x="927" d="M18 147l134 99q43 -72 94 -99.5t139 -27.5q119 0 183.5 44t64.5 120q0 55 -57.5 83.5t-194.5 53.5q-127 25 -184.5 83t-57.5 150q0 96 49.5 172t140.5 118t212 42q262 0 331 -158l-129 -96q-39 59 -91 86t-130 27q-92 0 -150.5 -46t-58.5 -116q0 -49 44 -75.5t128 -45.5 q174 -37 248 -90t74 -166q0 -156 -109.5 -242t-318.5 -86q-141 0 -225 41t-136 129z" />
<glyph unicode="t" horiz-adv-x="690" d="M119 215q0 47 8 90l152 856q2 10 2 29q0 29 -12.5 53.5t-43.5 50.5l123 105q61 -35 89 -77t28 -99q0 -27 -6 -62l-35 -198h274l-26 -142h-273l-92 -516q-6 -31 -6 -57q0 -115 121 -115h129l-25 -141h-129q-139 0 -208.5 53t-69.5 170z" />
<glyph unicode="u" horiz-adv-x="1134" d="M106 238q0 23 9 75l114 650h181l-113 -635q-4 -18 -4 -54q0 -74 41 -114.5t119 -40.5q113 0 190.5 75.5t126.5 190.5l102 578h181l-133 -746q-2 -11 -2 -29q0 -31 12 -52t43 -52l-129 -107q-61 39 -87 83q-24 41 -24 97v9q-59 -86 -144 -137.5t-196 -51.5q-131 0 -209 68 t-78 193z" />
<glyph unicode="v" horiz-adv-x="983" d="M115 963h174l94 -754q6 -53 14.5 -71.5t30.5 -18.5q20 0 34.5 18.5t41.5 71.5l356 754h176l-370 -766q-59 -125 -114.5 -172.5t-139.5 -47.5q-95 0 -139 48.5t-58 171.5z" />
<glyph unicode="w" horiz-adv-x="1335" d="M129 963h164l35 -805q41 10 71 73l338 652l111 -652q8 -35 18.5 -50t28.5 -19l319 801h160l-389 -963h-74q-86 0 -129 39t-55 127l-51 356l-180 -356q-49 -98 -103.5 -132t-140.5 -34h-74z" />
<glyph unicode="x" horiz-adv-x="913" d="M-53 0l415 504l-229 459h182l174 -347l289 347h185l-404 -488l240 -475h-185l-180 362l-303 -362h-184z" />
<glyph unicode="y" horiz-adv-x="1114" d="M119 231q0 45 8 84l76 433q2 10 2 30q0 29 -12.5 51.5t-40.5 51.5l122 104q61 -35 88 -76t27 -98q0 -29 -6 -63l-74 -418q-6 -31 -6 -58q0 -74 40 -112.5t116 -38.5q111 0 193.5 67.5t133.5 186.5l105 588h180l-190 -1078q-31 -178 -141.5 -264t-317.5 -86h-256l24 139 h256q217 0 254 213l48 271q-61 -84 -150.5 -132.5t-198.5 -48.5q-133 0 -206.5 67t-73.5 187z" />
<glyph unicode="z" horiz-adv-x="937" d="M10 117q0 18 2 28l15 76l680 600h-555l26 142h762l-22 -138l-736 -643q0 -41 60 -41h575l-24 -141h-609q-174 0 -174 117z" />
<glyph unicode="{" horiz-adv-x="716" d="M100 662q96 35 154.5 86t75.5 139l67 385q27 143 106 211.5t245 68.5h59l-23 -129h-59q-76 0 -114 -35.5t-52 -115.5l-67 -385q-16 -80 -50 -129t-110 -96q45 -37 65.5 -74t20.5 -86q0 -29 -6 -66l-70 -385q-6 -27 -6 -53q0 -49 27.5 -73.5t91.5 -24.5h59l-20 -129h-60 q-135 0 -197.5 46t-62.5 148q0 43 8 86l68 385q4 29 4 41q0 70 -42 113t-112 72z" />
<glyph unicode="|" horiz-adv-x="493" d="M41 -307l332 1884h133l-332 -1884h-133z" />
<glyph unicode="}" horiz-adv-x="716" d="M-27 -229l25 129h61q76 0 114 34.5t52 116.5l66 385q14 78 50 129t110 97q-45 35 -65.5 73.5t-20.5 87.5q0 31 6 64l69 385q6 31 6 55q0 49 -26.5 72.5t-91.5 23.5h-62l21 129h61q135 0 198.5 -46t63.5 -150q0 -43 -8 -84l-70 -385q-4 -29 -4 -41q0 -70 41 -112t113 -72 q-94 -35 -153.5 -86.5t-75.5 -139.5l-68 -385q-25 -145 -104.5 -212.5t-245.5 -67.5h-62z" />
<glyph unicode="~" horiz-adv-x="1353" d="M86 530q35 132 129 211.5t244 79.5q82 0 142.5 -19.5t141.5 -60.5q76 -35 127.5 -52t114.5 -17q74 0 127 39t90 125h135q-33 -131 -128 -211t-242 -80q-82 0 -141.5 19.5t-145.5 58.5q-72 35 -124 52t-116 17q-76 0 -129 -39t-88 -123h-137z" />
<glyph unicode="&#xa2;" horiz-adv-x="972" d="M82 268q0 35 6 74l49 279q31 166 141.5 261t288.5 103l39 223h113l-41 -227q211 -23 289 -154l-142 -102q-37 53 -75.5 79.5t-96.5 35.5l-125 -719q62 8 114 36.5t101 80.5l107 -103q-72 -78 -155 -115.5t-193 -42.5l-39 -223h-113l41 228q-152 16 -230.5 88.5 t-78.5 197.5zM264 291q0 -143 152 -168l125 717q-90 -14 -148.5 -70.5t-75.5 -148.5l-49 -279q-4 -37 -4 -51z" />
<glyph unicode="&#xa3;" horiz-adv-x="1163" d="M25 -2l26 147q150 74 228.5 189t78.5 256q0 31 -2 45h-219l19 106h190q-8 82 -8 127q0 172 65.5 300t182 197t270.5 69q125 0 206 -33t136 -101l-131 -120q-35 57 -88 84.5t-135 27.5q-88 0 -163 -48t-119 -143t-44 -231q0 -63 10 -129h355l-19 -106h-325v-21 q0 -147 -60.5 -267t-179.5 -204h727l-27 -145h-974z" />
<glyph unicode="&#xa5;" horiz-adv-x="1196" d="M135 297l19 100h329l31 168h-332l19 99h295l-314 770h215l256 -648l480 648h217l-590 -770h319l-18 -99h-352l-31 -168h354l-18 -100h-352l-54 -297h-194l53 297h-332z" />
<glyph unicode="&#xa8;" d="M469 1188q0 45 37 81t82 36q35 0 59.5 -25t24.5 -59q0 -45 -37 -81t-82 -36q-37 0 -60.5 23.5t-23.5 60.5zM813 1186q0 47 37 83t84 36q35 0 59.5 -25t24.5 -59q0 -45 -37 -81t-84 -36q-37 0 -60.5 23.5t-23.5 58.5z" />
<glyph unicode="&#xa9;" horiz-adv-x="1660" d="M113 565q0 242 114.5 447t316 325.5t451.5 120.5q188 0 333 -70.5t223.5 -203.5t78.5 -316q0 -242 -113.5 -446.5t-315.5 -325.5t-451 -121q-189 0 -333.5 71t-224 204t-79.5 315zM205 565q0 -246 147.5 -379t401.5 -133q227 0 406 108.5t278.5 295t99.5 411.5 q0 246 -146.5 379t-402.5 133q-227 0 -405 -108.5t-278.5 -294.5t-100.5 -412zM412 506q0 41 8 80l49 278q29 172 152.5 268.5t322.5 96.5q262 0 354 -158l-141 -102q-45 68 -94 93t-133 25q-113 0 -187.5 -59t-93.5 -164l-49 -278q-6 -31 -6 -56q0 -82 54 -125t157 -43 q82 0 146.5 29t123.5 90l105 -102q-143 -158 -392 -158q-182 0 -279 74t-97 211z" />
<glyph unicode="&#xab;" horiz-adv-x="1122" d="M90 532q156 57 294 159t204 204h141q-63 -102 -188 -203.5t-256 -159.5q110 -59 200 -160.5t117 -201.5h-141q-29 102 -133.5 204.5t-237.5 157.5zM436 532q152 57 293 160t205 203h141q-63 -102 -188 -203.5t-256 -159.5q111 -59 201 -160.5t116 -201.5h-141 q-29 102 -133.5 204.5t-237.5 157.5z" />
<glyph unicode="&#xad;" horiz-adv-x="761" d="M100 444l23 125h549l-23 -125h-549z" />
<glyph unicode="&#xae;" horiz-adv-x="1046" d="M162 920q0 147 69.5 269t190.5 193.5t268 71.5q174 0 276.5 -96t102.5 -260q0 -147 -67.5 -270t-187.5 -195t-267 -72q-174 0 -279.5 97.5t-105.5 261.5zM221 920q0 -143 87 -224.5t239 -81.5q133 0 238.5 64.5t166 175.5t60.5 244q0 145 -87 224t-241 79 q-131 0 -237.5 -63.5t-166 -174t-59.5 -243.5zM369 743l94 537h248q68 0 110.5 -34t42.5 -97q0 -68 -38 -111t-107 -55q37 -10 47 -37.5t16 -83.5l9 -119h-95l-12 129q-4 43 -18.5 62.5t-61.5 19.5h-106l-37 -211h-92zM510 1026h145q53 0 84 30.5t31 84.5q0 63 -84 63h-145z " />
<glyph unicode="&#xb4;" d="M645 1114l217 305h195l-266 -305h-146z" />
<glyph unicode="&#xb8;" d="M233 -385l50 102q29 -16 65.5 -25t69.5 -9q68 0 100.5 18t32.5 59q0 55 -107 56q-14 0 -63 -4l84 202h135l-49 -104q147 -8 147 -131q0 -100 -72.5 -153.5t-207.5 -53.5q-113 0 -185 43z" />
<glyph unicode="&#xbb;" horiz-adv-x="1124" d="M66 170q63 100 188 202.5t256 159.5q-111 57 -200 159t-117 204h141q31 -100 135 -202.5t236 -160.5q-154 -57 -294.5 -158.5t-203.5 -203.5h-141zM412 170q63 100 188 202.5t256 159.5q-111 57 -200 159t-117 204h141q29 -102 133.5 -204.5t237.5 -158.5 q-154 -57 -294.5 -158.5t-203.5 -203.5h-141z" />
<glyph unicode="&#x2c6;" d="M399 1114q68 45 158 135t152 178h141q33 -88 92 -178t109 -135h-168q-35 33 -69 84t-56 96q-31 -41 -87.5 -93t-105.5 -87h-166z" />
<glyph unicode="&#x2da;" d="M545 1249q0 100 69.5 165t176.5 65q82 0 129 -44t47 -118q0 -100 -70 -165t-176 -65q-82 0 -129 44.5t-47 117.5zM655 1260q0 -39 21.5 -58.5t60.5 -19.5q54 0 86.5 35.5t32.5 89.5q0 39 -21.5 58t-62.5 19q-51 0 -84 -35.5t-33 -88.5z" />
<glyph unicode="&#x2dc;" d="M399 1122q23 105 85.5 173.5t158.5 68.5q41 0 73 -13.5t70 -37.5q37 -20 55.5 -28.5t41.5 -8.5q35 0 56.5 23.5t39.5 74.5h121q-25 -98 -88.5 -167.5t-147.5 -69.5q-43 0 -74.5 13t-70.5 38q-33 18 -52.5 27.5t-41.5 9.5q-37 0 -61.5 -24.5t-45.5 -78.5h-119z" />
<glyph unicode="&#x2000;" horiz-adv-x="839" />
<glyph unicode="&#x2001;" horiz-adv-x="1679" />
<glyph unicode="&#x2002;" horiz-adv-x="839" />
<glyph unicode="&#x2003;" horiz-adv-x="1679" />
<glyph unicode="&#x2004;" horiz-adv-x="559" />
<glyph unicode="&#x2005;" horiz-adv-x="419" />
<glyph unicode="&#x2006;" horiz-adv-x="279" />
<glyph unicode="&#x2007;" horiz-adv-x="279" />
<glyph unicode="&#x2008;" horiz-adv-x="209" />
<glyph unicode="&#x2009;" horiz-adv-x="335" />
<glyph unicode="&#x200a;" horiz-adv-x="93" />
<glyph unicode="&#x2010;" horiz-adv-x="761" d="M100 444l23 125h549l-23 -125h-549z" />
<glyph unicode="&#x2011;" horiz-adv-x="761" d="M100 444l23 125h549l-23 -125h-549z" />
<glyph unicode="&#x2012;" horiz-adv-x="761" d="M100 444l23 125h549l-23 -125h-549z" />
<glyph unicode="&#x2013;" horiz-adv-x="1392" d="M100 444l23 125h1180l-23 -125h-1180z" />
<glyph unicode="&#x2014;" horiz-adv-x="2228" d="M100 444l23 125h2015l-22 -125h-2016z" />
<glyph unicode="&#x2018;" horiz-adv-x="450" d="M221 1147q0 104 64.5 202.5t169.5 176.5l47 -56q-123 -94 -152 -198q23 12 53 12q33 0 52.5 -21.5t19.5 -56.5q0 -61 -48 -112.5t-105 -51.5q-47 0 -74 27t-27 78z" />
<glyph unicode="&#x2019;" horiz-adv-x="448" d="M236 1124q123 94 152 199q-25 -12 -54 -13q-35 0 -54 21.5t-19 56.5q0 61 48 112.5t105 51.5q49 0 76 -26.5t27 -77.5q0 -102 -65.5 -201.5t-168.5 -177.5z" />
<glyph unicode="&#x201a;" horiz-adv-x="448" d="M0 -211q123 94 152 199q-25 -12 -54 -13q-35 0 -54 21.5t-19 56.5q0 61 48 112.5t105 51.5q49 0 76 -26.5t27 -77.5q0 -102 -65.5 -201.5t-168.5 -177.5z" />
<glyph unicode="&#x201c;" horiz-adv-x="806" d="M221 1147q0 104 64.5 202.5t169.5 176.5l47 -56q-123 -94 -152 -198q23 12 53 12q33 0 52.5 -21.5t19.5 -56.5q0 -61 -48 -112.5t-105 -51.5q-47 0 -74 27t-27 78zM580 1147q0 104 64.5 202.5t168.5 176.5l45 -56q-123 -94 -151 -198q25 12 55 12q33 0 52.5 -21.5 t19.5 -56.5q0 -61 -48.5 -112.5t-105.5 -51.5q-49 0 -74.5 27t-25.5 78z" />
<glyph unicode="&#x201d;" horiz-adv-x="806" d="M236 1124q123 94 152 199q-25 -12 -54 -13q-35 0 -54 21.5t-19 56.5q0 61 48 112.5t105 51.5q49 0 76 -26.5t27 -77.5q0 -102 -65.5 -201.5t-168.5 -177.5zM594 1124q123 94 152 199q-25 -12 -54 -13q-35 0 -54 21.5t-19 56.5q0 61 48 112.5t105 51.5q49 0 76 -26.5 t27 -77.5q0 -102 -65.5 -201.5t-168.5 -177.5z" />
<glyph unicode="&#x201e;" horiz-adv-x="806" d="M0 -211q123 94 152 199q-25 -12 -54 -13q-35 0 -54 21.5t-19 56.5q0 61 48 112.5t105 51.5q49 0 76 -26.5t27 -77.5q0 -102 -65.5 -201.5t-168.5 -177.5zM358 -211q123 94 152 199q-25 -12 -54 -13q-35 0 -54 21.5t-19 56.5q0 61 48 112.5t105 51.5q49 0 76 -26.5 t27 -77.5q0 -102 -65.5 -201.5t-168.5 -177.5z" />
<glyph unicode="&#x2022;" horiz-adv-x="890" d="M207 586q0 78 44 149.5t116.5 114.5t152.5 43q94 0 155.5 -62.5t61.5 -154.5q0 -78 -44 -148.5t-115.5 -114.5t-151.5 -44q-96 0 -157.5 62.5t-61.5 154.5z" />
<glyph unicode="&#x2026;" horiz-adv-x="1335" d="M57 76q0 57 44 101t102 44q43 0 71.5 -29.5t28.5 -72.5q0 -55 -43 -98.5t-100 -43.5q-45 0 -74 29t-29 70zM477 76q0 57 44 101t102 44q43 0 71.5 -29.5t28.5 -72.5q0 -55 -43 -98.5t-100 -43.5q-45 0 -74 29t-29 70zM897 76q0 57 44 101t102 44q43 0 71.5 -29.5 t28.5 -72.5q0 -55 -43 -98.5t-100 -43.5q-45 0 -74 29t-29 70z" />
<glyph unicode="&#x202f;" horiz-adv-x="335" />
<glyph unicode="&#x2039;" horiz-adv-x="776" d="M90 532q152 57 292 160t206 203h141q-63 -102 -188 -203.5t-256 -159.5q111 -59 200.5 -160.5t116.5 -201.5h-141q-29 102 -133.5 204.5t-237.5 157.5z" />
<glyph unicode="&#x203a;" horiz-adv-x="776" d="M66 170q63 100 187 202.5t255 159.5q-111 57 -199 159t-116 204h141q31 -100 134 -203.5t234 -159.5q-154 -57 -293 -158.5t-202 -203.5h-141z" />
<glyph unicode="&#x205f;" horiz-adv-x="419" />
<glyph unicode="&#x20ac;" horiz-adv-x="1357" d="M41 528l16 101h156l31 170h-156l16 98h158l6 39q45 256 208 388t435 132q186 0 312.5 -61.5t185.5 -180.5l-156 -98q-51 96 -133 141.5t-217 45.5q-186 0 -296.5 -93.5t-143.5 -273.5l-6 -39h557l-17 -98h-559l-30 -170h559l-17 -101h-561l-4 -28q-10 -57 -10 -97 q0 -135 83 -203.5t247 -68.5q141 0 240 46t188 149l120 -105q-115 -129 -243.5 -186.5t-311.5 -57.5q-250 0 -384 106.5t-134 301.5q0 63 10 115l5 28h-154z" />
<glyph unicode="&#x2122;" horiz-adv-x="1859" d="M203 1323l20 111h670l-21 -111h-266l-131 -741h-137l131 741h-266zM879 582l151 852h88q68 0 100.5 -29t59.5 -109l86 -256l174 256q53 76 98 107t113 31h90l-151 -852h-127l127 723q-14 0 -27.5 -11.5t-34.5 -40.5l-299 -422l-147 422q-10 29 -19.5 40.5t-25.5 13.5 l-127 -725h-129z" />
<glyph unicode="&#x25fc;" horiz-adv-x="962" d="M0 0v963h963v-963h-963z" />
</font>
</defs>
</svg>
