<?xml version="1.0" standalone="no"?>
<!DOCTYPE svg PUBLIC "-//W3C//DTD SVG 1.1//EN" "http://www.w3.org/Graphics/SVG/1.1/DTD/svg11.dtd" >
<svg xmlns="http://www.w3.org/2000/svg" xmlns:xlink="http://www.w3.org/1999/xlink" version="1.1">
<metadata></metadata>
<defs>
<font id="kohosemibold" horiz-adv-x="1228" >
<font-face units-per-em="2048" ascent="1638" descent="-410" />
<missing-glyph horiz-adv-x="550" />
<glyph horiz-adv-x="0" />
<glyph unicode="&#xd;" horiz-adv-x="550" />
<glyph horiz-adv-x="0" />
<glyph horiz-adv-x="0" />
<glyph unicode=" "  horiz-adv-x="550" />
<glyph unicode="&#x09;" horiz-adv-x="550" />
<glyph unicode="&#xa0;" horiz-adv-x="550" />
<glyph unicode="!" horiz-adv-x="581" d="M150 115q0 59 41.5 101t101.5 42q57 0 98 -42t41 -101q0 -57 -41 -98.5t-98 -41.5q-60 0 -101.5 41t-41.5 99zM178 1434h230l-33 -1014h-164z" />
<glyph unicode="&#x22;" horiz-adv-x="753" d="M106 1452h199l-12 -485h-172zM449 1452h198l-14 -485h-168z" />
<glyph unicode="#" horiz-adv-x="1167" d="M76 410v159h217l37 295h-213v160h233l51 410h166l-51 -410h201l51 410h166l-51 -410h209v-160h-230l-37 -295h224v-159h-244l-51 -410h-166l51 410h-201l-51 -410h-166l51 410h-196zM459 569h200l37 295h-200z" />
<glyph unicode="$" horiz-adv-x="1288" d="M78 244l164 137q78 -111 156.5 -160t189.5 -55v455q-12 2 -51 10q-201 41 -299.5 143.5t-98.5 272.5q0 174 120 283.5t329 125.5v223h133v-223q164 -8 271.5 -67.5t172.5 -165.5l-159 -131q-68 80 -132.5 120.5t-152.5 51.5v-455q166 -35 267.5 -80t158.5 -125t57 -213 q0 -380 -483 -411v-226h-133v221q-186 6 -297 70t-213 199zM381 1044q0 -77 55.5 -125.5t151.5 -76.5v422q-100 -16 -153.5 -71.5t-53.5 -148.5zM721 172q242 26 242 219q0 74 -51.5 117t-190.5 80v-416z" />
<glyph unicode="%" horiz-adv-x="1943" d="M78 957v248q0 152 84 231.5t239 79.5q154 0 237 -80t83 -231v-248q0 -158 -83 -242t-237 -84q-155 0 -239 84t-84 242zM244 957q0 -94 40 -144.5t117 -50.5q76 0 116 50.5t40 144.5v248q0 88 -40 134t-116 46t-116.5 -46t-40.5 -134v-248zM467 0l856 1434h160l-856 -1434 h-160zM1223 252v248q0 152 84 231.5t239 79.5q154 0 237 -80t83 -231v-248q0 -158 -83 -242t-237 -84q-155 0 -239 84t-84 242zM1389 252q0 -94 40 -144.5t117 -50.5q76 0 116 50.5t40 144.5v248q0 88 -40 134t-116 46t-116.5 -46t-40.5 -134v-248z" />
<glyph unicode="&#x26;" horiz-adv-x="1427" d="M76 391q0 141 76.5 232.5t224.5 173.5q-82 94 -124 170.5t-42 158.5q0 152 104.5 241t280.5 89t281.5 -90t105.5 -240q0 -121 -63.5 -203.5t-212.5 -172.5l284 -316q63 131 84 320h242q-29 -303 -164 -500l229 -254h-286l-90 100q-170 -125 -422 -125q-233 0 -370.5 113 t-137.5 303zM317 391q0 -102 72 -163.5t195 -61.5q163 0 276 96l-344 381q-102 -59 -150.5 -112.5t-48.5 -139.5zM453 1126q0 -55 26.5 -104t87.5 -119q92 53 133 102.5t41 120.5q0 63 -39.5 102.5t-105.5 39.5q-64 0 -103.5 -39t-39.5 -103z" />
<glyph unicode="'" horiz-adv-x="413" d="M106 1452h199l-12 -485h-170z" />
<glyph unicode="(" horiz-adv-x="622" d="M127 688q0 297 82 519.5t233 437.5l136 -82q-250 -397 -250 -875q0 -477 250 -874l-136 -82q-151 215 -233 437t-82 519z" />
<glyph unicode=")" horiz-adv-x="622" d="M45 -186q250 393 250 874t-250 875l135 82q152 -215 234 -437.5t82 -519.5t-82 -519t-234 -437z" />
<glyph unicode="*" horiz-adv-x="927" d="M76 1145v119h286l-143 247l103 60l143 -248l143 248l103 -60l-144 -247h287v-119h-287l144 -248l-103 -59l-143 247l-143 -247l-103 59l143 248h-286z" />
<glyph unicode="+" horiz-adv-x="1398" d="M127 526v172h481v486h183v-486h481v-172h-481v-485h-183v485h-481z" />
<glyph unicode="," horiz-adv-x="481" d="M96 94q0 59 43 109.5t105 50.5q65 0 103 -45t38 -127q0 -111 -48 -197t-142 -168l-68 66q59 51 90 99t39 104q-20 -10 -59 -11q-47 0 -74 32t-27 87z" />
<glyph unicode="-" horiz-adv-x="757" d="M98 438v150h561v-150h-561z" />
<glyph unicode="." horiz-adv-x="520" d="M119 115q0 59 42 101t101 42q57 0 98 -42t41 -101q0 -57 -41 -98.5t-98 -41.5q-59 0 -101 41t-42 99z" />
<glyph unicode="/" horiz-adv-x="917" d="M-10 -162l758 1764h180l-756 -1764h-182z" />
<glyph unicode="0" horiz-adv-x="1255" d="M119 518v414q0 254 131 390t377 136q248 0 379 -135t131 -391v-414q0 -262 -131.5 -402.5t-378.5 -140.5q-246 0 -377 140.5t-131 402.5zM342 518q0 -180 72.5 -274t212.5 -94q139 0 212.5 94t73.5 274v414q0 172 -73.5 262t-212.5 90q-137 0 -211 -91t-74 -261v-414z " />
<glyph unicode="1" horiz-adv-x="823" d="M92 1038v199l338 197h213v-1434h-223v1231z" />
<glyph unicode="2" horiz-adv-x="1216" d="M90 0v166l447 393q131 115 201.5 193.5t100 144.5t29.5 139q0 117 -85 180.5t-222 63.5q-213 0 -340 -156l-98 156q92 96 205.5 135t249.5 39q223 0 368.5 -99.5t145.5 -314.5q0 -248 -283 -497l-416 -369h733v-174h-1036z" />
<glyph unicode="3" horiz-adv-x="1273" d="M94 190l129 129q82 -86 168 -127.5t211 -41.5q154 0 242 65.5t88 179.5q0 268 -393 269q-66 0 -168 -11l-25 146q207 6 326 32.5t171 80t52 145.5q0 106 -85 166.5t-218 60.5q-215 0 -344 -156l-98 154q92 96 206.5 136t249.5 40q221 0 366.5 -95t145.5 -298 q0 -115 -67.5 -196t-194.5 -119q133 -31 216 -122t83 -235q0 -127 -66.5 -221t-191.5 -145.5t-295 -51.5q-145 0 -278.5 49.5t-229.5 165.5z" />
<glyph unicode="4" horiz-adv-x="1312" d="M47 444l731 990h283v-975h205v-174h-205v-285h-207v285h-731zM276 459h578v778z" />
<glyph unicode="5" horiz-adv-x="1304" d="M98 186l127 129q72 -96 171.5 -130.5t219.5 -34.5q164 0 255.5 75.5t91.5 214.5q0 152 -94.5 223.5t-280.5 71.5q-129 0 -289 -41l-119 135l60 605h862v-174h-682l-33 -367q84 20 203 20q291 0 443.5 -120.5t152.5 -352.5q0 -219 -150.5 -342t-417.5 -123 q-159 0 -290 46.5t-230 164.5z" />
<glyph unicode="6" horiz-adv-x="1245" d="M109 524q0 379 195.5 615.5t572.5 318.5l75 -164q-240 -43 -390 -178t-204 -352q119 113 306 113q223 0 355 -120t132 -323q0 -213 -139.5 -336t-380.5 -123q-242 0 -382 141.5t-140 407.5zM332 524q0 -170 73.5 -272t225.5 -102q139 0 218 73.5t79 210.5 q0 129 -77 198.5t-218 69.5q-197 0 -301 -151v-27z" />
<glyph unicode="7" horiz-adv-x="1153" d="M119 1260v174h915l82 -170q-406 -686 -616 -1264h-236q223 572 629 1260h-774z" />
<glyph unicode="8" horiz-adv-x="1212" d="M98 383q0 254 269 385q-219 94 -220 322q0 109 57.5 191.5t161 129.5t240.5 47t241.5 -47t161 -130t56.5 -189q0 -109 -59.5 -192t-161.5 -132q270 -104 270 -383q0 -195 -135 -302.5t-373 -107.5q-239 0 -373.5 107.5t-134.5 300.5zM322 383q0 -115 75.5 -178.5 t208.5 -63.5q135 0 210 63.5t75 180.5q0 111 -61.5 174.5t-186.5 95.5l-65 19q-256 -86 -256 -291zM371 1090q0 -86 53 -142.5t151 -81.5l41 -10q226 68 226 236q0 94 -63.5 147t-172.5 53q-111 0 -173 -53t-62 -149z" />
<glyph unicode="9" horiz-adv-x="1245" d="M92 999q0 211 140.5 335t379.5 124q244 0 384.5 -141t140.5 -408q0 -379 -196 -617.5t-572 -316.5l-78 164q240 43 391.5 178.5t204.5 350.5q-117 -111 -305 -111q-225 0 -357.5 120t-132.5 322zM315 999q0 -129 78 -198.5t219 -69.5q99 0 175.5 40t125.5 114v24 q0 170 -73.5 272.5t-227.5 102.5q-139 0 -218 -73.5t-79 -211.5z" />
<glyph unicode=":" horiz-adv-x="520" d="M119 115q0 59 42 101t101 42q57 0 98 -42t41 -101q0 -57 -41 -98.5t-98 -41.5q-59 0 -101 41t-42 99zM119 813q0 59 42 101t101 42q57 0 98 -42t41 -101q0 -57 -41 -98t-98 -41q-59 0 -101 41t-42 98z" />
<glyph unicode=";" horiz-adv-x="518" d="M119 94q0 59 43 109.5t106 50.5q68 0 105 -45t37 -127q0 -109 -48.5 -196t-142.5 -169l-69 66q59 49 89.5 98t39.5 107q-20 -12 -58 -13q-47 0 -74.5 32t-27.5 87zM119 813q0 59 42 101t101 42q57 0 98 -42t41 -101q0 -57 -41 -98t-98 -41q-59 0 -101 41t-42 98z" />
<glyph unicode="&#x3c;" horiz-adv-x="1044" d="M96 598q293 127 505 285.5t317 333.5v-216q-193 -231 -527 -403q334 -172 527 -403v-215q-105 174 -317 332.5t-505 285.5z" />
<glyph unicode="=" horiz-adv-x="1396" d="M127 362v173h1143v-173h-1143zM127 748v172h1143v-172h-1143z" />
<glyph unicode="&#x3e;" horiz-adv-x="1044" d="M127 -20v215q193 231 526 403q-334 172 -526 403v216q104 -174 317 -333t504 -286q-291 -127 -504 -285.5t-317 -332.5z" />
<glyph unicode="?" horiz-adv-x="1064" d="M66 1139q25 156 141.5 238.5t314.5 82.5q219 0 338 -97t119 -273q0 -113 -36 -192t-118 -159q-123 -117 -154.5 -154.5t-31.5 -74.5v-90h-223v90q0 45 16.5 81t55 80t128.5 132q86 84 113 139t27 148q0 92 -60.5 144t-173.5 52q-104 0 -164.5 -52t-87.5 -173zM387 115 q0 59 42 101t101 42q57 0 98.5 -42t41.5 -101q0 -57 -41 -98.5t-99 -41.5q-59 0 -101 41t-42 99z" />
<glyph unicode="@" horiz-adv-x="1882" d="M55 451q0 283 120 500.5t334 337.5t486 120q260 0 447.5 -98.5t287 -280.5t99.5 -428q0 -156 -55.5 -281.5t-158 -198.5t-235.5 -73q-113 0 -172 41t-75 107q-59 -76 -143.5 -112t-203.5 -36q-154 0 -245.5 99.5t-91.5 263.5q0 35 2 53q4 41 8 72q20 186 135 308t305 122 q180 0 260 -119l15 96h204l-86 -606q-4 -33 -4 -47q0 -106 103 -107q88 0 154.5 54.5t103.5 149.5t37 214q0 313 -178.5 492.5t-512.5 179.5q-242 0 -422 -100.5t-278 -287t-98 -435.5q0 -322 191.5 -495t545.5 -173q147 0 272 35t219 100l80 -123q-238 -147 -571 -147 q-422 0 -650.5 207.5t-228.5 595.5zM649 426q0 -98 50.5 -157.5t146.5 -59.5q172 0 246 168l38 270q-31 160 -200 160q-109 0 -180.5 -77t-87.5 -193l-9 -58q-4 -37 -4 -53z" />
<glyph unicode="A" horiz-adv-x="1392" d="M47 0l359 1161q35 115 72.5 178.5t88.5 91t129 27.5q76 0 127 -27.5t90 -91t74 -178.5l356 -1161h-241l-113 377h-588l-112 -377h-242zM455 557h481l-178 600q-12 41 -25.5 59.5t-36.5 18.5t-37 -18.5t-26 -59.5z" />
<glyph unicode="B" horiz-adv-x="1392" d="M180 0v1434h629q211 0 326.5 -98.5t115.5 -274.5q0 -109 -62.5 -192t-176.5 -113q129 -27 205.5 -121t76.5 -242q0 -182 -126 -287.5t-343 -105.5h-645zM422 190h352q279 0 279 230q0 115 -71 173t-208 58h-352v-461zM422 842h379q92 0 150.5 55t58.5 145 q0 92 -57.5 146.5t-151.5 54.5h-379v-401z" />
<glyph unicode="C" horiz-adv-x="1300" d="M119 498v438q0 256 149.5 389t431.5 133q195 0 322 -63.5t205 -192.5l-172 -121q-66 98 -145 142.5t-208 44.5q-342 0 -342 -332v-438q0 -332 347 -332q137 0 221 47t145 147l172 -127q-96 -135 -217 -196.5t-319 -61.5q-287 0 -438.5 133.5t-151.5 389.5z" />
<glyph unicode="D" horiz-adv-x="1449" d="M180 0v1434h527q236 0 373 -70t198 -224.5t61 -422.5t-61 -423t-198.5 -224.5t-372.5 -69.5h-527zM422 190h285q145 0 230 51.5t123 165t38 310.5t-38 310.5t-123 164.5t-230 51h-285v-1053z" />
<glyph unicode="E" horiz-adv-x="1181" d="M115 440v553q0 217 118.5 329t378.5 112h484v-191h-484q-131 0 -193.5 -60.5t-62.5 -189.5v-182h645v-188h-645v-183q0 -129 62.5 -189.5t193.5 -60.5h492v-190h-492q-260 0 -378.5 111.5t-118.5 328.5z" />
<glyph unicode="F" horiz-adv-x="1189" d="M129 0v993q0 217 119 329t379 112h483v-191h-483q-131 0 -193.5 -60.5t-62.5 -189.5v-223h645v-188h-645v-582h-242z" />
<glyph unicode="G" horiz-adv-x="1374" d="M119 498v438q0 256 152.5 389t441.5 133q199 0 331 -62.5t211 -185.5l-182 -127q-66 96 -147.5 140.5t-212.5 44.5q-180 0 -266.5 -83t-86.5 -249v-438q0 -166 86 -249t267 -83q158 0 243.5 55t85.5 158v86q0 147 -141 147h-237v191h301q160 0 237.5 -75t77.5 -230v-136 q0 -119 -69.5 -205.5t-197.5 -134t-300 -47.5q-289 0 -441.5 133.5t-152.5 389.5z" />
<glyph unicode="H" horiz-adv-x="1480" d="M180 0v1434h242v-621h635v621h241v-1434h-241v625h-635v-625h-242z" />
<glyph unicode="I" horiz-adv-x="604" d="M180 0v1434h242v-1434h-242z" />
<glyph unicode="J" horiz-adv-x="1120" d="M47 166l143 147q61 -82 123 -114.5t154 -32.5q137 0 210 64.5t73 187.5v1016h241v-1018q0 -215 -132 -328t-384 -113q-151 0 -245.5 46.5t-182.5 144.5z" />
<glyph unicode="K" horiz-adv-x="1406" d="M180 0v1434h242v-711l643 711h289l-520 -564q96 -20 157.5 -65t105.5 -123t89 -207l157 -475h-243l-152 453q-29 86 -57.5 133t-77.5 75.5t-137 38.5l-254 -276v-424h-242z" />
<glyph unicode="L" horiz-adv-x="1128" d="M129 440v994h242v-994q0 -129 58 -189.5t181 -60.5h459v-190h-459q-254 0 -367.5 111.5t-113.5 328.5z" />
<glyph unicode="M" horiz-adv-x="1699" d="M180 0v1434h129q96 0 155.5 -27t104.5 -84t101 -168l180 -354l180 354q55 111 100.5 168t104.5 84t156 27h129v-1434h-222v1184q-27 -2 -46 -23.5t-46 -73.5l-356 -663l-356 663q-29 53 -47.5 75t-45.5 24v-1186h-221z" />
<glyph unicode="N" horiz-adv-x="1490" d="M180 0v1434h277l583 -1227h11q33 0 45 27.5t12 97.5v1102h227v-1137q0 -147 -60.5 -222t-191.5 -75h-170l-505 1055v-1055h-228z" />
<glyph unicode="O" horiz-adv-x="1394" d="M119 498v438q0 256 149.5 389t429.5 133q281 0 429.5 -133t148.5 -389v-438q0 -256 -148.5 -389.5t-429.5 -133.5q-280 0 -429.5 133.5t-149.5 389.5zM360 498q0 -162 87.5 -247t250.5 -85q162 0 249 85t87 247v438q0 162 -87 247t-249 85q-164 0 -251 -85t-87 -247v-438 z" />
<glyph unicode="P" horiz-adv-x="1298" d="M180 0v1434h590q244 0 362.5 -110t118.5 -333q0 -225 -118.5 -334.5t-362.5 -109.5h-348v-547h-242zM422 737h350q106 0 172 64.5t66 189.5t-65.5 188.5t-172.5 63.5h-350v-506z" />
<glyph unicode="Q" horiz-adv-x="1394" d="M119 498v438q0 256 149.5 389t429.5 133q281 0 429.5 -133t148.5 -389v-438q0 -205 -97.5 -333t-281.5 -169q96 -96 320 -96v-205q-219 2 -353.5 70.5t-201.5 209.5q-264 10 -403.5 143.5t-139.5 379.5zM360 498q0 -162 87.5 -247t250.5 -85q162 0 249 85t87 247v438 q0 162 -87 247t-249 85q-164 0 -251 -85t-87 -247v-438z" />
<glyph unicode="R" horiz-adv-x="1384" d="M180 0v1434h592q242 0 360.5 -102.5t118.5 -309.5q0 -145 -73.5 -233.5t-206.5 -110.5q100 -35 153.5 -119t94.5 -225l96 -334h-256l-96 334q-29 100 -60 156.5t-85 85t-146 28.5h-250v-604h-242zM422 795h350q106 0 172 57t66 166q0 111 -65.5 168t-172.5 57h-350v-448z " />
<glyph unicode="S" horiz-adv-x="1288" d="M78 244l164 137q84 -117 169 -166t212 -49q172 0 256 55t84 170q0 63 -36 103.5t-125 70t-265 66.5q-201 41 -299.5 143.5t-98.5 272.5q0 125 63.5 218t180.5 143t274 50q193 0 315 -59.5t193 -175.5l-159 -131q-80 92 -157 134t-194 42q-131 0 -202.5 -58.5 t-71.5 -165.5q0 -96 80 -146t221 -81q182 -37 290.5 -81t170 -126t61.5 -219q0 -416 -579 -416q-142 0 -239 30t-166.5 87.5t-141.5 151.5z" />
<glyph unicode="T" horiz-adv-x="1222" d="M47 1243v191h1129v-191h-443v-1243h-241v1243h-445z" />
<glyph unicode="U" horiz-adv-x="1378" d="M129 414v1020h242v-1020q0 -123 80.5 -186.5t236.5 -63.5t237 63.5t81 186.5v1020h241v-1020q0 -207 -144.5 -323t-414.5 -116t-414.5 116t-144.5 323z" />
<glyph unicode="V" horiz-adv-x="1353" d="M47 1434h242l327 -1158q12 -41 25.5 -59t36.5 -18q20 0 34.5 18.5t24.5 58.5l328 1158h242l-340 -1162q-49 -166 -114 -231.5t-175 -65.5q-113 0 -177.5 65.5t-113.5 231.5z" />
<glyph unicode="W" horiz-adv-x="1869" d="M53 1434h228l272 -1209q29 25 53 94l328 947l332 -947q20 -68 51 -94l272 1209h228l-328 -1434h-72q-102 0 -163.5 24.5t-101.5 84t-77 170.5l-141 430l-137 -430q-35 -109 -77 -168.5t-104.5 -85t-162.5 -25.5h-72z" />
<glyph unicode="X" d="M4 0l467 731l-448 703h274l330 -519l329 519h269l-463 -732l448 -702h-274l-330 518l-332 -518h-270z" />
<glyph unicode="Y" horiz-adv-x="1218" d="M6 1434h270l336 -603l328 603h272l-485 -824v-610h-242v610z" />
<glyph unicode="Z" horiz-adv-x="1198" d="M57 231v125l801 887h-770v191h1022v-217l-831 -934v-19q0 -43 22.5 -59.5t69.5 -16.5h774v-190h-823q-131 0 -198 56.5t-67 176.5z" />
<glyph unicode="[" horiz-adv-x="759" d="M170 -229v1781h502v-153h-305v-1475h305v-153h-502z" />
<glyph unicode="\" horiz-adv-x="911" d="M-10 1587h180l752 -1749h-183z" />
<glyph unicode="]" horiz-adv-x="759" d="M88 -76h305v1475h-305v153h502v-1781h-502v153z" />
<glyph unicode="^" horiz-adv-x="1280" d="M219 621q279 348 422 813q139 -459 422 -813h-184q-119 156 -238 411q-115 -250 -240 -411h-182z" />
<glyph unicode="_" horiz-adv-x="1062" d="M0 -233h1063v-150h-1063v150z" />
<glyph unicode="`" d="M305 1417h236l166 -313h-183z" />
<glyph unicode="a" horiz-adv-x="1085" d="M92 262q0 158 108.5 223.5t276.5 83.5l119 13q66 6 93.5 23.5t31.5 51.5q-12 172 -207 172q-76 0 -130 -25.5t-103 -84.5l-154 108q55 76 147.5 118t239.5 42q215 0 322.5 -89t107.5 -259v-383q0 -49 18.5 -80t67.5 -70l-149 -131q-115 57 -146 152q-47 -66 -129 -109 t-194 -43q-147 0 -233.5 75t-86.5 212zM305 272q0 -66 42 -99.5t120 -33.5q119 0 186.5 59.5t67.5 149.5v111q-39 -16 -135 -27l-92 -10q-188 -20 -189 -150z" />
<glyph unicode="b" horiz-adv-x="1200" d="M72 1389l149 129q90 -47 125 -107.5t35 -167.5v-393q106 137 305 137q133 0 228.5 -62.5t144.5 -170t49 -240.5v-65q0 -133 -49 -241t-144.5 -170.5t-228.5 -62.5q-201 1 -305 134v-109h-223v1239q0 49 -18.5 80t-67.5 70zM381 336q57 -186 246 -186q121 0 188.5 84.5 t67.5 214.5v65q0 129 -67.5 214t-188.5 85q-188 0 -246 -186v-291z" />
<glyph unicode="c" horiz-adv-x="964" d="M102 348v266q0 178 114 275.5t321 97.5q256 0 374 -162l-153 -125q-51 61 -99.5 87t-121.5 26q-100 0 -155.5 -52t-55.5 -147v-266q0 -96 54 -147t157 -51q76 0 126 25.5t97 84.5l153 -125q-59 -80 -149 -120t-227 -40q-209 0 -322 96.5t-113 276.5z" />
<glyph unicode="d" horiz-adv-x="1198" d="M92 449v65q0 133 49 240.5t143.5 170t227.5 62.5q203 0 305 -133v385q0 49 -18.5 80t-67.5 70l150 129q90 -47 124.5 -107.5t34.5 -167.5v-987q0 -49 18.5 -80t67.5 -70l-147 -131q-111 57 -143 164q-53 -82 -132 -123t-192 -41q-193 0 -306.5 128t-113.5 346zM315 449 q0 -129 68 -214t188 -85q190 0 246 186v291q-55 186 -246 186q-121 0 -188.5 -85t-67.5 -214v-65z" />
<glyph unicode="e" horiz-adv-x="1011" d="M102 346v299q0 158 112 249t306 91q199 0 309.5 -97t110.5 -280q0 -84 -16.5 -131t-59.5 -68.5t-127 -21.5h-413v-41q0 -199 217 -199q80 0 134 21.5t109 75.5l134 -123q-61 -72 -153.5 -109t-227.5 -37q-221 0 -328 91.5t-107 279.5zM324 541h292q57 0 80 19.5t23 68.5 q0 90 -52.5 138t-148.5 48q-90 0 -142 -51t-52 -135v-88z" />
<glyph unicode="f" horiz-adv-x="679" d="M158 0v1100q0 193 107.5 296t307.5 103h86v-174h-86q-92 0 -142 -58.5t-50 -166.5v-137h278v-175h-278v-788h-223z" />
<glyph unicode="g" horiz-adv-x="1198" d="M92 473v41q0 133 48 240.5t143.5 170t228.5 62.5q211 0 322 -164q12 53 45.5 91t99.5 73l147 -131q-49 -39 -67.5 -69.5t-18.5 -79.5v-750q0 -190 -103 -278.5t-329 -88.5h-262v172h262q106 0 157.5 47.5t51.5 147.5v180q-47 -68 -118.5 -102.5t-184.5 -34.5 q-193 0 -307.5 128t-114.5 345zM315 473q0 -129 68 -214t188 -85q189 0 246 182v273q-57 184 -246 184q-121 0 -188.5 -85t-67.5 -214v-41z" />
<glyph unicode="h" horiz-adv-x="1130" d="M72 1389l149 131q90 -47 125 -107.5t35 -169.5v-409q45 72 119.5 112.5t177.5 40.5q153 0 236 -87t83 -245v-655h-223v633q0 84 -42 132t-118 48q-88 0 -145 -57.5t-88 -151.5v-604h-223v1239q0 51 -18.5 82t-67.5 68z" />
<glyph unicode="i" horiz-adv-x="550" d="M137 1255q0 53 40 93.5t95 40.5q53 0 93.5 -40t40.5 -94q0 -55 -40 -95t-94 -40q-55 0 -95 40t-40 95zM160 252v711h223v-707q0 -49 18.5 -80t67.5 -70l-147 -131q-91 48 -126.5 109t-35.5 168z" />
<glyph unicode="j" horiz-adv-x="540" d="M-133 -301h102q113 0 161 52t48 173v1039h223v-1039q0 -145 -43 -232t-137 -127t-252 -40h-102v174zM156 1255q0 53 40 93.5t95 40.5t94 -40t39 -94q0 -55 -39 -95t-94 -40t-95 40t-40 95z" />
<glyph unicode="k" horiz-adv-x="1093" d="M72 1389l149 129q90 -45 125 -105.5t35 -169.5v-663l375 383h272l-330 -334q98 -20 153.5 -90t94.5 -209l90 -330h-229l-90 330q-18 68 -56 98.5t-122 38.5l-158 -160v-307h-223v1239q0 49 -18.5 80t-67.5 70z" />
<glyph unicode="l" horiz-adv-x="540" d="M72 1389l149 131q90 -47 125 -107.5t35 -169.5v-987q0 -49 19.5 -80t68.5 -70l-150 -131q-90 48 -125.5 109t-35.5 168v987q0 51 -18.5 82t-67.5 68z" />
<glyph unicode="m" horiz-adv-x="1675" d="M72 856l149 131q121 -59 148 -168q102 168 293 168q106 0 177.5 -49t98.5 -143q37 88 114.5 140t188.5 52q143 0 222 -87t79 -245v-655h-223v633q0 84 -38 132t-105 48q-80 0 -134.5 -57.5t-80.5 -149.5v-606h-224v633q0 84 -36.5 132t-104.5 48q-80 0 -135 -57.5 t-80 -149.5v-606h-223v707q0 49 -18.5 79.5t-67.5 69.5z" />
<glyph unicode="n" horiz-adv-x="1130" d="M72 856l149 131q66 -35 100.5 -75t49.5 -95q43 78 120.5 124t184.5 46q155 0 238 -87t83 -245v-655h-223v633q0 84 -42 132t-118 48q-88 0 -145 -56.5t-88 -148.5v-608h-223v707q0 49 -18.5 79.5t-67.5 69.5z" />
<glyph unicode="o" horiz-adv-x="1067" d="M102 352v258q0 180 113 278.5t317 98.5q207 0 320 -98t113 -279v-258q0 -180 -113 -278.5t-320 -98.5q-204 0 -317 98.5t-113 278.5zM326 352q0 -98 54 -150t152 -52q101 0 155 52t54 150v258q0 98 -54 150.5t-155 52.5q-98 0 -152 -52t-54 -151v-258z" />
<glyph unicode="p" horiz-adv-x="1198" d="M72 856l149 131q63 -33 98 -73t48 -93q106 166 321 166q135 0 229.5 -64.5t141.5 -172t47 -236.5v-65q0 -129 -47 -237t-141.5 -172.5t-229.5 -64.5q-119 0 -189.5 36t-117.5 102v-562h-223v1156q0 49 -19.5 80.5t-66.5 68.5zM381 336q57 -186 246 -186q121 0 188.5 84.5 t67.5 214.5v65q0 129 -67.5 214t-188.5 85q-188 0 -246 -186v-291z" />
<glyph unicode="q" horiz-adv-x="1157" d="M92 449v65q0 133 49 240.5t144.5 170t228.5 62.5q201 0 303 -131v109h223v-1409h-223v557q-102 -137 -305 -138q-193 0 -306.5 128t-113.5 346zM315 449q0 -129 68 -214t188 -85q191 0 246 186v291q-55 186 -246 186q-121 0 -188.5 -85t-67.5 -214v-65z" />
<glyph unicode="r" horiz-adv-x="835" d="M72 856l149 131q72 -37 108 -81t46 -109q43 88 114.5 139t169.5 51q94 0 166 -51l-57 -188q-37 25 -75 36t-87 11q-160 0 -225 -236v-559h-223v707q0 49 -18.5 79.5t-67.5 69.5z" />
<glyph unicode="s" horiz-adv-x="931" d="M68 152l139 118q57 -68 108.5 -94t133.5 -26q100 0 147 28.5t47 87.5q0 37 -21.5 60.5t-78 42t-162.5 37.5q-287 53 -287 299q0 131 101.5 206.5t271.5 75.5q256 0 356 -162l-137 -116q-51 55 -100 79.5t-119 24.5q-78 0 -120 -30.5t-42 -84.5q0 -51 47 -78.5t129 -44.5 q129 -29 207 -60.5t123 -92t45 -160.5q0 -287 -407 -287q-150 0 -231 42t-150 135z" />
<glyph unicode="t" horiz-adv-x="716" d="M61 1286l150 131q90 -47 125 -107.5t35 -168.5v-178h278v-175h-278v-454q0 -88 30.5 -127t100.5 -39h147v-172h-147q-193 0 -274 77t-81 261v803q0 49 -18 79.5t-68 69.5z" />
<glyph unicode="u" horiz-adv-x="1142" d="M133 311v652h223v-633q0 -84 45 -132t127 -48q86 0 143.5 59t88.5 158v596h223v-705q0 -49 18.5 -81t69.5 -68l-149 -129q-68 35 -103 74.5t-49 97.5q-47 -82 -123 -129.5t-184 -47.5q-158 0 -244 87.5t-86 248.5z" />
<glyph unicode="v" horiz-adv-x="1007" d="M20 963h218l225 -750q12 -39 19 -51t24 -12q14 0 23.5 13t19.5 50l223 750h215l-235 -770q-35 -117 -91.5 -167.5t-154.5 -50.5q-96 0 -153.5 50.5t-92.5 167.5z" />
<glyph unicode="w" horiz-adv-x="1349" d="M37 963h203l166 -764q31 14 51 71l219 621l221 -621q23 -55 49 -69l164 762h203l-219 -963h-88q-102 0 -153.5 41t-86.5 149l-90 275l-92 -275q-35 -113 -85 -151.5t-153 -38.5h-88z" />
<glyph unicode="x" horiz-adv-x="925" d="M20 0l322 504l-307 459h225l211 -316l203 316h225l-311 -490l317 -473h-225l-221 332l-211 -332h-228z" />
<glyph unicode="y" horiz-adv-x="1128" d="M61 854l150 131q90 -47 125 -106.5t35 -167.5v-377q0 -84 46 -133t128 -49q102 0 163.5 70.5t79.5 176.5v564h224v-1065q0 -190 -103.5 -278.5t-326.5 -88.5h-265v174h265q106 0 156 46t50 147v243q-95 -161 -302 -161h-3q-160 0 -248 87t-88 246v394q0 49 -18 79.5 t-68 67.5z" />
<glyph unicode="z" horiz-adv-x="937" d="M61 160v92l545 539h-524v172h780v-168l-598 -590q14 -33 62 -33h561v-172h-617q-102 0 -155.5 38t-53.5 122z" />
<glyph unicode="{" horiz-adv-x="749" d="M66 662q90 37 141 89t51 136v360q0 162 78 233.5t256 71.5h61v-153h-61q-76 0 -107.5 -36t-31.5 -116v-360q0 -78 -27 -129t-92 -96q66 -45 92.5 -96.5t26.5 -129.5v-360q0 -80 31.5 -116t107.5 -36h61v-153h-61q-178 0 -256 71.5t-78 233.5v360q0 84 -51 136.5 t-141 89.5z" />
<glyph unicode="|" horiz-adv-x="514" d="M178 -301v1878h158v-1878h-158z" />
<glyph unicode="}" horiz-adv-x="749" d="M96 -76h62q76 0 107.5 36t31.5 116v360q0 78 26.5 129t92.5 97q-66 45 -92.5 96t-26.5 129v360q0 80 -32 116t-107 36h-62v153h62q178 0 256 -71.5t78 -233.5v-360q0 -84 50 -136.5t142 -88.5q-92 -37 -142 -89.5t-50 -136.5v-360q0 -162 -78 -233.5t-256 -71.5h-62v153z " />
<glyph unicode="~" horiz-adv-x="1370" d="M76 518q6 139 94 226t250 87q82 0 144.5 -19t146.5 -56q78 -35 128 -50.5t111 -15.5q72 0 115 37t65 121h164q-8 -139 -95 -226t-249 -87q-82 0 -145.5 19t-147.5 58q-76 33 -126 49.5t-111 16.5q-72 0 -116 -38t-64 -122h-164z" />
<glyph unicode="&#xa2;" horiz-adv-x="964" d="M102 348v266q0 162 94.5 258.5t270.5 112.5v223h133v-223q209 -18 311 -160l-153 -125q-39 47 -75 73t-83 34v-651q49 8 86 33.5t74 70.5l153 -125q-51 -72 -126.5 -110.5t-186.5 -47.5v-223h-133v223q-176 16 -270.5 111.5t-94.5 259.5zM326 348q0 -78 35.5 -126 t105.5 -64v647q-68 -16 -104.5 -65.5t-36.5 -125.5v-266z" />
<glyph unicode="&#xa3;" horiz-adv-x="1187" d="M106 -2v182q117 59 172.5 148.5t55.5 191.5q0 49 -15 111h-213v119h181q-23 70 -35 129t-12 127q0 207 120.5 323.5t341.5 116.5q129 0 214 -34t157 -105l-137 -150q-43 57 -98.5 86t-135.5 29q-113 0 -176 -71t-63 -195q0 -76 12 -127.5t39 -128.5h336v-119h-303 q10 -55 10 -111q0 -211 -143 -342h698v-180h-1006z" />
<glyph unicode="&#xa5;" horiz-adv-x="1218" d="M6 1434h270l336 -603l328 603h272l-448 -762h319v-119h-356v-150h356v-116h-356v-287h-242v287h-323v116h323v150h-323v119h289z" />
<glyph unicode="&#xa8;" d="M322 1202q0 47 34.5 81t81.5 34q45 0 79 -34t34 -81t-34 -82t-79 -35q-47 0 -81.5 35t-34.5 82zM678 1202q0 47 32.5 81t82.5 34q47 0 81.5 -35t34.5 -80q0 -47 -34.5 -82t-81.5 -35q-50 0 -82.5 34t-32.5 83z" />
<glyph unicode="&#xa9;" horiz-adv-x="1660" d="M82 717q0 219 93 388t263 262t391 93t391.5 -93t264.5 -262t94 -388t-94 -388t-264 -262.5t-392 -93.5q-221 0 -391 93.5t-263 262.5t-93 388zM184 717q0 -199 79 -346.5t225.5 -227.5t340.5 -80q197 0 343.5 80t225.5 227.5t79 346.5t-79 346t-225.5 227t-343.5 80 q-195 0 -341 -80t-225 -227.5t-79 -345.5zM393 592v266q0 178 112.5 275.5t319.5 97.5q137 0 228.5 -41t148.5 -121l-153 -125q-53 61 -99.5 87t-124.5 26q-98 0 -153.5 -52.5t-55.5 -146.5v-266q0 -96 54.5 -147.5t156.5 -51.5q76 0 125 25.5t99 85.5l153 -125 q-59 -80 -149 -120t-228 -40q-211 0 -322.5 96.5t-111.5 276.5z" />
<glyph unicode="&#xab;" horiz-adv-x="1146" d="M82 532q143 55 265 158t169 205h166q-45 -100 -151.5 -201.5t-229.5 -161.5q123 -59 229.5 -160.5t151.5 -201.5h-166q-47 102 -169 204.5t-265 157.5zM440 532q143 57 265 160t169 203h166q-45 -100 -151.5 -201.5t-229.5 -161.5q123 -59 229.5 -160.5t151.5 -201.5 h-166q-47 102 -168.5 204.5t-265.5 157.5z" />
<glyph unicode="&#xad;" horiz-adv-x="757" d="M98 438v150h561v-150h-561z" />
<glyph unicode="&#xae;" horiz-adv-x="1038" d="M74 1008q0 131 56 232t157.5 157.5t232.5 56.5t232.5 -56.5t158 -157.5t56.5 -232q0 -133 -56.5 -234.5t-158 -157t-232.5 -55.5t-232.5 55.5t-157.5 156.5t-56 235zM135 1008q0 -178 104.5 -284t280.5 -106t279.5 105.5t103.5 284.5q0 180 -103.5 285.5t-279.5 105.5 t-280.5 -105.5t-104.5 -285.5zM313 743v537h246q190 0 191 -162q0 -59 -30 -93t-85 -44q35 -12 51 -41t31 -88l26 -109h-112l-31 125q-12 43 -27.5 59.5t-56.5 16.5h-94v-201h-109zM422 1028h127q47 0 68.5 19.5t21.5 64.5q0 43 -21.5 62.5t-68.5 19.5h-127v-166z" />
<glyph unicode="&#xb4;" d="M512 1104l164 313h235l-219 -313h-180z" />
<glyph unicode="&#xb8;" d="M369 -408l37 125q74 -37 147 -36q61 0 89 13t28 44q0 33 -23.5 52.5t-95.5 19.5q-16 0 -66 -5l50 207h161l-26 -92q174 -18 174 -182q0 -96 -68.5 -144.5t-197.5 -48.5q-115 0 -209 47z" />
<glyph unicode="&#xbb;" horiz-adv-x="1146" d="M106 170q45 100 152 201.5t229 160.5q-123 59 -229 161t-152 202h166q47 -100 169 -202.5t266 -160.5q-143 -55 -265.5 -157.5t-169.5 -204.5h-166zM463 170q45 100 151.5 201.5t229.5 160.5q-123 59 -229.5 161t-151.5 202h168q47 -102 169 -204.5t265 -158.5 q-143 -55 -265 -157.5t-169 -204.5h-168z" />
<glyph unicode="&#x2c6;" d="M268 1104q56 47 130.5 138t121.5 181h185q47 -88 121.5 -180t131.5 -139h-200q-41 35 -82 80t-64 88q-23 -43 -63.5 -88t-81.5 -80h-199z" />
<glyph unicode="&#x2da;" d="M393 1282q0 94 60.5 149.5t160.5 55.5t161 -55.5t61 -149.5q0 -92 -60.5 -147.5t-161.5 -55.5q-100 0 -160.5 55.5t-60.5 147.5zM520 1282q0 -41 25.5 -66.5t68.5 -25.5t69 25.5t26 66.5q0 43 -26 68.5t-69 25.5t-68.5 -25.5t-25.5 -68.5z" />
<glyph unicode="&#x2dc;" d="M272 1110q4 115 60.5 190.5t163.5 75.5q41 0 74.5 -12t78.5 -37q66 -35 101 -35q27 0 40 23.5t19 77.5h147q-10 -113 -64 -190t-142 -77q-41 0 -75 12.5t-79 37.5q-66 35 -100 34q-31 0 -48.5 -23.5t-27.5 -76.5h-148z" />
<glyph unicode="&#x2000;" horiz-adv-x="839" />
<glyph unicode="&#x2001;" horiz-adv-x="1679" />
<glyph unicode="&#x2002;" horiz-adv-x="839" />
<glyph unicode="&#x2003;" horiz-adv-x="1679" />
<glyph unicode="&#x2004;" horiz-adv-x="559" />
<glyph unicode="&#x2005;" horiz-adv-x="419" />
<glyph unicode="&#x2006;" horiz-adv-x="279" />
<glyph unicode="&#x2007;" horiz-adv-x="279" />
<glyph unicode="&#x2008;" horiz-adv-x="209" />
<glyph unicode="&#x2009;" horiz-adv-x="335" />
<glyph unicode="&#x200a;" horiz-adv-x="93" />
<glyph unicode="&#x2010;" horiz-adv-x="757" d="M98 438v150h561v-150h-561z" />
<glyph unicode="&#x2011;" horiz-adv-x="757" d="M98 438v150h561v-150h-561z" />
<glyph unicode="&#x2012;" horiz-adv-x="757" d="M98 438v150h561v-150h-561z" />
<glyph unicode="&#x2013;" horiz-adv-x="1390" d="M98 438v150h1192v-150h-1192z" />
<glyph unicode="&#x2014;" horiz-adv-x="2224" d="M98 438v150h2028v-150h-2028z" />
<glyph unicode="&#x2018;" horiz-adv-x="481" d="M96 1178q0 111 48.5 196.5t142.5 167.5l67 -65q-57 -51 -89 -100.5t-40 -104.5q20 12 58 12q47 0 74.5 -31.5t27.5 -87.5q0 -59 -43 -109t-104 -50q-68 0 -105 45t-37 127z" />
<glyph unicode="&#x2019;" horiz-adv-x="481" d="M96 1429q0 59 43 109.5t105 50.5q65 0 103 -45t38 -127q0 -111 -48 -197t-142 -168l-68 66q59 51 90 99t39 104q-20 -10 -59 -11q-47 0 -74 32t-27 87z" />
<glyph unicode="&#x201a;" horiz-adv-x="481" d="M96 94q0 59 43 109.5t105 50.5q65 0 103 -45t38 -127q0 -111 -48 -197t-142 -168l-68 66q59 51 90 99t39 104q-20 -10 -59 -11q-47 0 -74 32t-27 87z" />
<glyph unicode="&#x201c;" horiz-adv-x="884" d="M96 1178q0 111 48.5 196.5t142.5 167.5l67 -65q-57 -51 -89 -100.5t-40 -104.5q20 12 58 12q47 0 74.5 -31.5t27.5 -87.5q0 -59 -43 -109t-104 -50q-68 0 -105 45t-37 127zM500 1178q0 111 48 196.5t142 167.5l68 -65q-59 -51 -90 -99.5t-39 -103.5q20 10 59 10 q47 0 73.5 -31.5t26.5 -87.5q0 -59 -43 -109t-104 -50q-68 0 -104.5 45t-36.5 127z" />
<glyph unicode="&#x201d;" horiz-adv-x="884" d="M96 1429q0 59 43 109.5t105 50.5q65 0 103 -45t38 -127q0 -111 -48 -197t-142 -168l-68 66q59 51 90 99t39 104q-20 -10 -59 -11q-47 0 -74 32t-27 87zM499 1429q0 59 43 109.5t105 50.5q65 0 103 -45t38 -127q0 -111 -48 -197t-142 -168l-68 66q59 51 90 99t39 104 q-20 -10 -59 -11q-47 0 -74 32t-27 87z" />
<glyph unicode="&#x201e;" horiz-adv-x="884" d="M96 94q0 59 43 109.5t105 50.5q65 0 103 -45t38 -127q0 -111 -48 -197t-142 -168l-68 66q59 51 90 99t39 104q-20 -10 -59 -11q-47 0 -74 32t-27 87zM499 94q0 59 43 109.5t105 50.5q65 0 103 -45t38 -127q0 -111 -48 -197t-142 -168l-68 66q59 51 90 99t39 104 q-20 -10 -59 -11q-47 0 -74 32t-27 87z" />
<glyph unicode="&#x2022;" horiz-adv-x="905" d="M184 631q0 72 36 134t98.5 98t134.5 36t134 -36t98 -98.5t36 -133.5q0 -74 -37 -135.5t-98.5 -97.5t-132.5 -36q-72 0 -134.5 36t-98.5 98.5t-36 134.5z" />
<glyph unicode="&#x2026;" horiz-adv-x="1359" d="M119 115q0 59 42 101t101 42q57 0 98 -42t41 -101q0 -57 -41 -98.5t-98 -41.5q-59 0 -101 41t-42 99zM539 115q0 59 42 101t101 42q57 0 98 -42t41 -101q0 -57 -41 -98.5t-98 -41.5q-59 0 -101 41t-42 99zM959 115q0 59 42 101t101 42q57 0 98 -42t41 -101 q0 -57 -41 -98.5t-98 -41.5q-59 0 -101 41t-42 99z" />
<glyph unicode="&#x202f;" horiz-adv-x="335" />
<glyph unicode="&#x2039;" horiz-adv-x="788" d="M82 532q143 57 265 160t169 203h166q-45 -100 -151.5 -201.5t-229.5 -161.5q123 -59 229.5 -160.5t151.5 -201.5h-166q-47 102 -169 204.5t-265 157.5z" />
<glyph unicode="&#x203a;" horiz-adv-x="788" d="M106 170q45 100 152 201.5t229 160.5q-123 59 -229 161t-152 202h166q47 -100 169 -202.5t266 -160.5q-143 -55 -265.5 -157.5t-169.5 -204.5h-166z" />
<glyph unicode="&#x205f;" horiz-adv-x="419" />
<glyph unicode="&#x20ac;" horiz-adv-x="1368" d="M31 516v117h155v149h-155v119h155v35q0 256 149.5 389t432.5 133q195 0 322 -63.5t204 -192.5l-174 -121q-66 98 -143.5 142.5t-206.5 44.5q-342 0 -342 -332v-35h533v-119h-533v-149h533v-117h-533v-18q0 -332 346 -332q137 0 219 47t146 147l172 -127 q-96 -135 -217 -196.5t-320 -61.5q-287 0 -437.5 133.5t-150.5 389.5v18h-155z" />
<glyph unicode="&#x2122;" horiz-adv-x="1886" d="M47 1300v134h690v-134h-262v-718h-166v718h-262zM874 582v852h105q84 0 126 -34t89 -132l96 -187l96 187q51 96 92.5 131t120.5 35h107v-852h-156v694q-14 -2 -25.5 -15.5t-27.5 -39.5l-207 -392l-207 392q-18 31 -28.5 43t-24.5 14v-696h-156z" />
<glyph unicode="&#x25fc;" horiz-adv-x="962" d="M0 0v963h963v-963h-963z" />
</font>
</defs>
</svg>
