<?xml version="1.0" standalone="no"?>
<!DOCTYPE svg PUBLIC "-//W3C//DTD SVG 1.1//EN" "http://www.w3.org/Graphics/SVG/1.1/DTD/svg11.dtd" >
<svg xmlns="http://www.w3.org/2000/svg" xmlns:xlink="http://www.w3.org/1999/xlink" version="1.1">
<metadata></metadata>
<defs>
<font id="kohoextralight_italic" horiz-adv-x="1228" >
<font-face units-per-em="2048" ascent="1638" descent="-410" />
<missing-glyph horiz-adv-x="456" />
<glyph horiz-adv-x="0" />
<glyph unicode="&#xd;" horiz-adv-x="456" />
<glyph horiz-adv-x="0" />
<glyph horiz-adv-x="0" />
<glyph unicode=" "  horiz-adv-x="456" />
<glyph unicode="&#x09;" horiz-adv-x="456" />
<glyph unicode="&#xa0;" horiz-adv-x="456" />
<glyph unicode="!" horiz-adv-x="487" d="M96 37q0 33 25.5 57.5t58.5 24.5q25 0 41.5 -16.5t16.5 -41.5q0 -33 -26 -57t-56 -24q-27 0 -43.5 16t-16.5 41zM182 324l180 1110h99l-213 -1110h-66z" />
<glyph unicode="&#x22;" horiz-adv-x="626" d="M283 1094l49 340h74l-70 -340h-53zM508 1094l49 340h74l-70 -340h-53z" />
<glyph unicode="#" horiz-adv-x="1101" d="M88 451l10 61h228l123 410h-236l10 61h244l137 451h62l-138 -451h287l137 451h62l-137 -451h221l-11 -61h-229l-123 -410h238l-10 -61h-246l-137 -451h-62l137 451h-286l-138 -451h-61l137 451h-219zM387 512h287l123 410h-287z" />
<glyph unicode="$" horiz-adv-x="1245" d="M55 211l47 43q70 -111 171.5 -163t252.5 -54l117 661l-22 4q-143 29 -224.5 68t-118 99.5t-36.5 154.5q0 125 70.5 222t192.5 152.5t273 55.5l39 225h57l-40 -227q303 -16 391 -221l-49 -39q-89 189 -351 203l-114 -645q158 -31 247 -71t128.5 -100.5t39.5 -152.5 q0 -129 -68.5 -227.5t-192.5 -155.5t-290 -63l-40 -226h-58l39 226q-162 2 -275.5 59t-185.5 172zM307 1024q0 -109 77 -167t271 -95l113 635q-129 0 -234.5 -48.5t-166 -132t-60.5 -192.5zM584 39q217 10 347 116.5t130 274.5q0 82 -48 132t-124 77t-191 49z" />
<glyph unicode="%" horiz-adv-x="1810" d="M178 865q0 45 8 88l41 233q27 158 111 238t213 80q113 0 171 -56.5t58 -169.5q0 -49 -8 -92l-41 -233q-27 -156 -107.5 -237t-211.5 -81q-115 0 -174.5 58.5t-59.5 171.5zM234 869q0 -92 45 -139.5t133 -47.5q106 0 173.5 69t90.5 202l41 233q8 41 8 86q0 184 -178 185 q-104 0 -172 -68t-92 -203l-41 -233q-8 -41 -8 -84zM383 0l1108 1434h62l-1108 -1434h-62zM1114 160q0 45 8 88l41 233q27 158 111 238t213 80q113 0 171 -56.5t58 -169.5q0 -49 -8 -92l-41 -233q-27 -156 -107.5 -237t-211.5 -81q-115 0 -174.5 58.5t-59.5 171.5zM1170 164 q0 -92 45 -139.5t133 -47.5q106 0 173.5 69t90.5 202l41 233q8 41 8 86q0 184 -178 185q-104 0 -172 -68t-92 -203l-41 -233q-8 -41 -8 -84z" />
<glyph unicode="&#x26;" horiz-adv-x="1306" d="M70 305q0 127 56 217t138 146.5t217 128.5q-68 94 -100.5 165.5t-32.5 145.5q0 100 47 178t131 122t193 44q123 0 193.5 -62.5t70.5 -172.5q0 -102 -50 -176t-127 -124.5t-228 -132.5l8 -10l370 -498q137 170 236 478h68q-109 -343 -267 -527l168 -227h-98l-125 170 q-197 -190 -494 -190q-174 0 -274 89t-100 236zM135 305q0 -125 85 -196.5t235 -71.5q270 0 448 182l-387 531q-129 -68 -199.5 -115t-126 -129t-55.5 -201zM414 1108q0 -61 29.5 -120.5t101.5 -156.5q8 4 17 9.5t22 11.5q117 63 181 106t107 104.5t43 147.5q0 88 -52 136.5 t-146 48.5q-133 0 -218 -81t-85 -206z" />
<glyph unicode="'" horiz-adv-x="401" d="M283 1094l49 340h74l-70 -340h-53z" />
<glyph unicode="(" horiz-adv-x="563" d="M156 406q0 322 126 632t371 590l45 -33q-166 -190 -320.5 -485t-154.5 -704q0 -182 41 -335t115 -290l-57 -33q-166 289 -166 658z" />
<glyph unicode=")" horiz-adv-x="563" d="M-61 -219q166 190 320.5 485t154.5 705q0 182 -41 334.5t-115 289.5l57 33q166 -289 166 -657q0 -322 -126 -632t-371 -591z" />
<glyph unicode="*" horiz-adv-x="962" d="M215 1178l10 53h342l-118 297l49 26l118 -297l226 297l41 -26l-224 -297h345l-11 -53h-344l119 -297l-49 -27l-119 297l-225 -297l-41 27l223 297h-342z" />
<glyph unicode="+" horiz-adv-x="1431" d="M162 584l10 57h543l96 543h59l-96 -543h543l-10 -57h-543l-96 -543h-60l97 543h-543z" />
<glyph unicode="," horiz-adv-x="370" d="M-2 -195q96 88 117 187q-20 -12 -41 -12q-18 0 -29.5 12t-11.5 33q0 35 27.5 64.5t60.5 29.5q29 0 44 -16.5t15 -45.5q0 -70 -44 -146.5t-116 -131.5z" />
<glyph unicode="-" horiz-adv-x="759" d="M123 477l10 58h514l-10 -58h-514z" />
<glyph unicode="." horiz-adv-x="425" d="M66 37q0 33 25.5 57.5t58.5 24.5q25 0 41 -16.5t16 -41.5q0 -33 -25.5 -57t-56.5 -24q-27 0 -43 16t-16 41z" />
<glyph unicode="/" horiz-adv-x="792" d="M-123 -162l1063 1759h59l-1058 -1759h-64z" />
<glyph unicode="0" horiz-adv-x="1179" d="M133 356q0 70 17 164l69 393q96 541 531 541q184 0 280 -95t96 -286q0 -80 -14 -160l-70 -393q-96 -541 -532 -540q-182 0 -279.5 94t-97.5 282zM199 360q0 -324 311 -323q381 0 467 483l70 393q16 94 16 160q0 324 -313 324q-379 0 -465 -484l-70 -393q-16 -94 -16 -160 z" />
<glyph unicode="1" horiz-adv-x="696" d="M240 1176l12 67l356 191h51l-251 -1434h-66l240 1360z" />
<glyph unicode="2" horiz-adv-x="1198" d="M31 0l10 57l664 512q186 143 291.5 281.5t105.5 288.5q0 135 -95.5 196.5t-252.5 61.5q-240 0 -414 -170l-29 53q186 174 453 174q180 0 291.5 -78t111.5 -235q0 -162 -109.5 -307.5t-264.5 -264.5l-662 -512h879l-11 -57h-968z" />
<glyph unicode="3" horiz-adv-x="1239" d="M66 176l51 41q131 -180 413 -180q143 0 255 53t173.5 150.5t61.5 224.5t-96.5 194.5t-292.5 67.5q-111 0 -219 -16v57q248 8 398.5 46t224 120t73.5 219q0 117 -92 180.5t-246 63.5q-250 0 -428 -168l-35 47q188 178 473 178q178 0 286 -79t108 -216q0 -160 -97.5 -261 t-275.5 -138q125 -19 204.5 -92.5t79.5 -200.5q0 -143 -69.5 -254t-195.5 -172t-290 -61q-135 0 -262 41.5t-202 154.5z" />
<glyph unicode="4" horiz-adv-x="1202" d="M53 379l987 1055h84l-186 -1055h174l-10 -57h-174l-58 -322h-65l57 322h-792zM125 377h752l174 989z" />
<glyph unicode="5" horiz-adv-x="1226" d="M66 156l51 41q66 -100 167 -130t234 -30q150 0 262.5 60.5t174 171t61.5 253.5q0 156 -107.5 226.5t-318.5 70.5q-147 0 -297 -39l-33 45l170 609h746l-11 -58h-692l-151 -538q133 39 278 39q233 0 357 -87.5t124 -267.5q0 -162 -70.5 -284.5t-198.5 -190t-296 -67.5 q-139 0 -259 35.5t-191 140.5z" />
<glyph unicode="6" horiz-adv-x="1163" d="M121 360q0 246 117.5 477.5t320.5 395.5t449 221l16 -53q-174 -35 -334 -142.5t-278.5 -264t-175.5 -335.5q78 90 185 135.5t234 45.5q183 0 285 -88t102 -250q0 -154 -65.5 -271.5t-185 -184t-279.5 -66.5q-193 0 -292 99t-99 281zM186 360q0 -143 77 -233t249 -90 q137 0 242.5 57.5t164 162.5t58.5 245q0 137 -86 208.5t-248 71.5q-141 0 -251.5 -59t-184.5 -168q-20 -106 -21 -195z" />
<glyph unicode="7" horiz-adv-x="1099" d="M170 0q460 749 956 1376h-825l10 58h869l16 -58q-154 -188 -450.5 -609t-503.5 -767h-72z" />
<glyph unicode="8" horiz-adv-x="1163" d="M100 307q0 182 113 304t311 169q-127 35 -188.5 104.5t-61.5 168.5q0 119 62.5 210t171 141t244.5 50q166 0 260 -79t94 -208q0 -150 -107.5 -251t-248.5 -136q131 -31 204.5 -109.5t73.5 -205.5q0 -145 -64.5 -255t-183 -170t-276.5 -60q-191 0 -297.5 86t-106.5 241z M164 309q0 -133 89 -203.5t251 -70.5q213 0 337 115.5t124 314.5q0 123 -76 187.5t-225 97.5l-46 10q-217 -41 -335.5 -159t-118.5 -292zM338 1049q0 -98 68.5 -153.5t201.5 -82.5l54 -10q180 35 280 132t100 232q0 109 -78.5 170.5t-222.5 61.5q-119 0 -210 -44t-142 -124 t-51 -182z" />
<glyph unicode="9" horiz-adv-x="1163" d="M205 932q0 156 66.5 273.5t187.5 183t280 65.5q189 0 288 -100.5t99 -280.5q0 -248 -117.5 -479.5t-321.5 -395t-445 -218.5l-27 53q174 35 334 141.5t280.5 263t180.5 334.5q-76 -88 -182.5 -133t-231.5 -45q-184 0 -287.5 88t-103.5 250zM270 932q0 -137 86 -209 t248 -72q141 0 252 58.5t182 167.5q23 102 23 196q0 145 -77 234.5t-247 89.5q-139 0 -244.5 -58.5t-164 -164t-58.5 -242.5z" />
<glyph unicode=":" horiz-adv-x="425" d="M66 37q0 33 25.5 57.5t58.5 24.5q25 0 41 -16.5t16 -41.5q0 -33 -25.5 -57t-56.5 -24q-27 0 -43 16t-16 41zM197 778q0 33 25.5 57.5t58.5 24.5q25 0 41 -16.5t16 -40.5q0 -33 -24.5 -57.5t-57.5 -24.5q-27 0 -43 16.5t-16 40.5z" />
<glyph unicode=";" horiz-adv-x="421" d="M29 -195q55 49 80.5 91.5t33.5 93.5q-18 -10 -39 -10q-18 0 -29.5 12t-11.5 33q0 35 28 64.5t61 29.5q29 0 44 -16.5t15 -45.5q0 -70 -44 -146.5t-116 -131.5zM203 778q0 33 25.5 57.5t58.5 24.5q25 0 41 -16.5t16 -40.5q0 -33 -24.5 -57.5t-57.5 -24.5q-26 0 -42.5 16.5 t-16.5 40.5z" />
<glyph unicode="&#x3c;" horiz-adv-x="1042" d="M131 582q301 127 529.5 280.5t361.5 321.5l-18 -103q-141 -147 -334 -275t-420 -224q195 -98 343 -226.5t234 -273.5l-18 -102q-74 167 -249 322t-429 280z" />
<glyph unicode="=" horiz-adv-x="1421" d="M125 381l10 57h1135l-10 -57h-1135zM190 750l11 57h1134l-10 -57h-1135z" />
<glyph unicode="&#x3e;" horiz-adv-x="1042" d="M55 -20l19 102q141 147 334.5 275t420.5 225q-197 100 -345 227t-234 272l18 103q74 -168 249 -322.5t431 -279.5q-299 -123 -530.5 -279t-362.5 -323z" />
<glyph unicode="?" horiz-adv-x="950" d="M199 1149q47 150 158.5 228.5t273.5 78.5q156 0 246 -74.5t90 -197.5q0 -111 -61.5 -217.5t-184.5 -202.5q-113 -88 -160 -144.5t-55 -111.5l-25 -137h-61l24 137q12 70 62.5 131t183.5 170q113 92 164 182t51 193q0 98 -74.5 158.5t-203.5 60.5q-139 0 -232.5 -69.5 t-138.5 -207.5zM322 37q0 33 25.5 57.5t58.5 24.5q25 0 42 -16.5t17 -41.5q0 -33 -25.5 -57t-58.5 -24q-27 0 -43 16t-16 41z" />
<glyph unicode="@" horiz-adv-x="1882" d="M55 279q0 307 145.5 563t397.5 403.5t555 147.5q326 0 507 -170t181 -475q0 -195 -65.5 -352.5t-182 -248t-262.5 -90.5q-113 0 -158 51.5t-49 110.5q-147 -168 -381 -168q-135 0 -201.5 76t-66.5 197q0 78 39 202q61 197 192.5 317t325.5 120q117 0 179.5 -47.5 t78.5 -116.5l47 145h62l-195 -610q-16 -49 -16 -90q0 -61 37 -97t116 -36q121 0 221.5 85t159 231t58.5 321q0 276 -165 433.5t-462 157.5q-287 0 -524.5 -140t-374.5 -384t-137 -536q0 -272 176 -417t512 -145q158 0 298 38t253 110l22 -47q-252 -154 -581 -154 q-360 0 -551 160t-191 455zM539 330q0 -106 56 -166t171 -60q225 1 379 222l115 362q-4 221 -240 221q-158 0 -275.5 -109.5t-166.5 -269.5q-39 -125 -39 -200z" />
<glyph unicode="A" horiz-adv-x="1310" d="M-12 0l600 1231q55 115 107.5 169t131.5 54q74 0 110 -51t52 -172l166 -1231h-68l-73 535h-695l-264 -535h-67zM346 592h660l-91 639q-12 88 -32.5 125t-65.5 37q-43 0 -75.5 -35t-79.5 -127z" />
<glyph unicode="B" horiz-adv-x="1341" d="M121 0l252 1434h588q154 0 239.5 -76t85.5 -211t-85 -242.5t-216 -142.5q98 -31 160.5 -103.5t62.5 -191.5q0 -139 -64.5 -244.5t-181 -164t-270.5 -58.5h-571zM197 57h495q133 0 235.5 51.5t159 144.5t56.5 214q0 129 -89 196.5t-243 67.5h-496zM326 788h532 q100 0 183 48.5t131.5 130.5t48.5 180q0 106 -70 167.5t-190 61.5h-533z" />
<glyph unicode="C" horiz-adv-x="1284" d="M135 379q0 57 12 121l78 436q45 252 207 386t420 134q338 0 473 -211l-53 -39q-117 193 -424 193q-227 0 -372.5 -120t-184.5 -343l-78 -436q-10 -66 -10 -111q0 -170 108.5 -261t313.5 -91q162 0 282.5 50t210.5 146l37 -43q-106 -111 -233 -160.5t-301 -49.5 q-234 0 -360 103t-126 296z" />
<glyph unicode="D" horiz-adv-x="1419" d="M121 0l252 1434h485q262 0 381 -113t119 -358q0 -301 -86 -517.5t-250 -331t-395 -114.5h-506zM197 57h430q207 0 357.5 107.5t229 311.5t78.5 487q0 221 -101 317t-333 96h-430z" />
<glyph unicode="E" horiz-adv-x="1208" d="M119 303q0 63 10 115l104 598q39 215 163 316.5t347 101.5h512l-10 -58h-502q-180 0 -294.5 -81t-149.5 -279l-47 -268h772l-10 -58h-772l-47 -272q-10 -61 -11 -103q0 -131 80 -194.5t248 -63.5h520l-10 -57h-520q-197 0 -290 77t-93 226z" />
<glyph unicode="F" horiz-adv-x="1204" d="M70 0l178 1016q39 215 163 316.5t347 101.5h512l-10 -58h-502q-180 0 -295 -81t-150 -279l-55 -314h772l-10 -57h-770l-115 -645h-65z" />
<glyph unicode="G" horiz-adv-x="1347" d="M135 373q0 59 12 127l78 436q45 252 207 386t420 134q168 0 284.5 -40t198.5 -126l-49 -47q-131 156 -438 156q-227 0 -372.5 -120t-184.5 -343l-78 -436q-10 -51 -10 -117q0 -168 104.5 -257t304.5 -89q215 0 360.5 84t168.5 223l28 170q6 31 7 59q0 166 -197 166h-250 l8 56h250q125 0 188.5 -53.5t63.5 -157.5q0 -33 -6 -70l-29 -170q-18 -109 -98 -191.5t-209 -127.5t-289 -45q-231 0 -352 101t-121 292z" />
<glyph unicode="H" horiz-adv-x="1466" d="M121 0l252 1434h65l-121 -686h926l121 686h66l-252 -1434h-66l121 690h-926l-121 -690h-65z" />
<glyph unicode="I" horiz-adv-x="475" d="M121 0l252 1434h65l-252 -1434h-65z" />
<glyph unicode="J" horiz-adv-x="1017" d="M12 139l45 45q100 -147 320 -147q162 0 267.5 88t133.5 246l189 1063h65l-188 -1067q-33 -182 -157 -284.5t-314 -102.5q-121 0 -213 40.5t-148 118.5z" />
<glyph unicode="K" horiz-adv-x="1318" d="M121 0l252 1434h65l-153 -873l1034 873h90l-649 -545q133 -8 204.5 -52t99.5 -116t36 -182l39 -539h-66l-39 539q-8 106 -35.5 167.5t-97.5 94.5t-203 37l-428 -361l-84 -477h-65z" />
<glyph unicode="L" horiz-adv-x="1142" d="M133 313q0 43 10 105l179 1016h65l-178 -1016q-10 -61 -10 -103q0 -131 80.5 -194.5t246.5 -63.5h461l-10 -57h-455q-192 0 -290.5 79t-98.5 234z" />
<glyph unicode="M" horiz-adv-x="1662" d="M121 0l252 1434h51q59 0 95 -24t52 -75l275 -776l549 776q68 98 180 99h51l-252 -1434h-65l241 1376q-39 -2 -61.5 -18.5t-48.5 -52.5l-617 -877l-309 877q-20 71 -84 71h-2l-242 -1376h-65z" />
<glyph unicode="N" horiz-adv-x="1441" d="M121 0l252 1434h88l592 -1373h16q31 0 45 17.5t23 62.5l227 1293h66l-228 -1293q-10 -76 -45 -108.5t-102 -32.5h-49l-582 1356l-238 -1356h-65z" />
<glyph unicode="O" horiz-adv-x="1384" d="M137 381q0 68 10 119l76 434q45 254 208 387t427 133q229 0 351 -104.5t122 -294.5q0 -68 -10 -121l-76 -434q-45 -254 -206.5 -387t-428.5 -133q-227 0 -350 104t-123 297zM203 389q0 -170 105.5 -261t305.5 -91q232 0 379.5 121t186.5 342l75 434q10 66 11 110 q0 170 -105.5 261.5t-306.5 91.5q-231 0 -378.5 -121t-186.5 -342l-76 -434q-10 -66 -10 -111z" />
<glyph unicode="P" horiz-adv-x="1265" d="M121 0l252 1434h594q158 0 247 -84t89 -230q0 -141 -58.5 -248.5t-164 -166t-242.5 -58.5h-537l-115 -647h-65zM311 705h535q176 0 283.5 113.5t107.5 301.5q0 121 -72.5 188.5t-201.5 67.5h-535z" />
<glyph unicode="Q" horiz-adv-x="1384" d="M137 381q0 66 10 119l76 434q45 254 208 387t427 133q229 0 351 -104.5t122 -294.5q0 -68 -10 -121l-76 -434q-41 -240 -189.5 -372t-389.5 -146q70 -135 321 -148l-10 -61q-309 16 -379 207q-223 2 -342 106t-119 295zM203 389q0 -170 105.5 -261t305.5 -91 q231 0 379 121t187 342l75 434q11 65 11 110q0 170 -105.5 261.5t-306.5 91.5q-231 0 -378.5 -121t-186.5 -342l-76 -434q-10 -66 -10 -111z" />
<glyph unicode="R" horiz-adv-x="1329" d="M121 0l252 1434h596q158 0 246 -78t88 -217q0 -172 -91.5 -286t-255.5 -148q86 -35 117 -106t41 -200l33 -399h-70l-33 399q-8 111 -35.5 170.5t-94 89t-195.5 29.5h-412l-121 -688h-65zM317 745h537q113 0 200 49.5t135 139.5t48 205q0 113 -71.5 175t-200.5 62h-537z " />
<glyph unicode="S" horiz-adv-x="1245" d="M55 211l47 43q72 -113 175.5 -165t257.5 -52q156 0 275.5 49t185 138t65.5 206q0 92 -60.5 144.5t-141.5 75t-238 52.5q-143 29 -224.5 68t-118 99.5t-36.5 154.5q0 127 71.5 224.5t195.5 151.5t275 54q344 0 441 -223l-49 -39q-92 205 -402 205q-129 0 -236.5 -47 t-169 -132t-61.5 -194q0 -76 35 -125t114 -82t216 -59q174 -33 271 -73t140 -101.5t43 -157.5q0 -133 -73.5 -234.5t-208.5 -156.5t-314 -55q-170 0 -286.5 56t-188.5 175z" />
<glyph unicode="T" horiz-adv-x="1175" d="M229 1376l11 58h1032l-10 -58h-484l-241 -1376h-66l242 1376h-484z" />
<glyph unicode="U" horiz-adv-x="1363" d="M127 307q0 29 6 60l189 1067h65l-188 -1067q-4 -18 -4 -52q0 -127 109.5 -202.5t299.5 -75.5q207 0 350.5 90t169.5 240l189 1067h65l-188 -1067q-20 -115 -99 -203t-204 -136t-279 -48q-221 0 -351 89t-130 238z" />
<glyph unicode="V" horiz-adv-x="1269" d="M240 1434h67l160 -1231q12 -92 31.5 -127t58.5 -35t70.5 35t77.5 127l593 1231h68l-588 -1231q-59 -123 -107 -173t-120 -50q-76 0 -109.5 52t-48.5 171z" />
<glyph unicode="W" horiz-adv-x="1794" d="M246 1434h67l72 -1373q39 2 63.5 17.5t45.5 54.5l530 1071l154 -1071q8 -70 86 -72l553 1373h67l-579 -1434h-39q-70 0 -105 26.5t-45 86.5l-125 899l-450 -914q-49 -98 -181 -98h-38z" />
<glyph unicode="X" horiz-adv-x="1144" d="M-63 0l641 727l-373 707h76l348 -658l579 658h76l-627 -713l383 -721h-77l-357 672l-592 -672h-77z" />
<glyph unicode="Y" horiz-adv-x="1128" d="M199 1434h71l328 -779l596 779h72l-645 -842l-105 -592h-65l104 592z" />
<glyph unicode="Z" horiz-adv-x="1204" d="M14 88q0 8 4 33l5 20l1144 1235h-897l11 58h976l-10 -54l-1163 -1253l-4 -14q-2 -6 -2 -17q0 -39 72 -39h903l-11 -57h-903q-125 0 -125 88z" />
<glyph unicode="[" horiz-adv-x="677" d="M70 -229l313 1781h371l-11 -57h-305l-293 -1667h306l-11 -57h-370z" />
<glyph unicode="\" horiz-adv-x="765" d="M176 1536h60l428 -1698h-64z" />
<glyph unicode="]" horiz-adv-x="677" d="M-12 -229l10 57h305l293 1667h-305l10 57h371l-314 -1781h-370z" />
<glyph unicode="^" horiz-adv-x="1282" d="M260 621q324 335 541 763q68 -436 270 -763h-70q-84 135 -138 281.5t-89 314.5q-188 -336 -444 -596h-70z" />
<glyph unicode="_" horiz-adv-x="1060" d="M-150 -365l11 58h1061l-11 -58h-1061z" />
<glyph unicode="`" d="M549 1419h78l114 -282h-55z" />
<glyph unicode="a" horiz-adv-x="1064" d="M82 215q0 147 103.5 227t287.5 95l191 14q90 8 135 30.5t63 69.5l4 27q4 18 4 51q0 96 -67.5 148.5t-186.5 52.5q-139 0 -215.5 -32t-134.5 -101l-39 34q53 72 145.5 112t252.5 40q141 0 225 -65.5t84 -178.5q0 -27 -6 -61l-101 -576q-2 -6 -2 -20q0 -35 31 -66l-43 -36 q-49 39 -49 92q0 14 4 43l10 51q-143 -186 -432 -186q-117 0 -190.5 62t-73.5 173zM143 219q0 -86 55.5 -134t157.5 -48q182 0 305 87t150 232l33 191q-61 -39 -217 -51l-154 -11q-156 -10 -243 -76.5t-87 -189.5z" />
<glyph unicode="b" horiz-adv-x="1128" d="M100 0l234 1329q2 10 2 27q0 31 -29 59l39 37q51 -33 51 -94q0 -12 -4 -41l-90 -514q63 88 157.5 134t207.5 46q176 0 263 -104.5t87 -266.5q0 -33 -8 -98l-11 -65q-35 -221 -167 -345t-322 -124q-117 0 -202 48t-118 136l-28 -164h-62zM207 276q23 -117 91.5 -180 t207.5 -63q172 0 286.5 112.5t143.5 303.5l10 65q8 47 8 98q0 147 -75.5 232.5t-212.5 85.5q-139 0 -230.5 -64.5t-156.5 -183.5z" />
<glyph unicode="c" horiz-adv-x="978" d="M98 244q0 43 8 82l56 311q29 156 147.5 251t290.5 95q131 0 213 -38t137 -118l-45 -39q-53 72 -119.5 107t-185.5 35q-145 0 -249.5 -81t-127.5 -212l-55 -311q-6 -37 -6 -72q0 -221 295 -221q100 0 189 36.5t147 102.5l43 -41q-70 -72 -168.5 -111.5t-210.5 -39.5 q-176 0 -267.5 66.5t-91.5 197.5z" />
<glyph unicode="d" horiz-adv-x="1128" d="M109 334q0 47 10 115l10 65q33 213 164 341t328 128q133 0 210.5 -53t106.5 -131l92 530q2 10 2 27q0 31 -28 59l43 37q47 -31 47 -94q0 -12 -4 -41l-216 -1215q-2 -8 -2 -22q0 -35 31 -64l-43 -36q-25 20 -39 43.5t-14 62.5q0 33 8 66q-131 -172 -358 -172 q-168 0 -258 92t-90 262zM172 344q0 -145 73.5 -228t215.5 -83q250 0 383 237l74 420q-23 115 -92.5 177.5t-209.5 62.5q-166 0 -281.5 -112.5t-144.5 -303.5l-10 -65q-8 -49 -8 -105z" />
<glyph unicode="e" horiz-adv-x="1005" d="M96 242q0 25 8 77l58 324q29 160 141.5 250t286.5 90q162 0 252 -77t90 -210t-54.5 -192.5t-179.5 -59.5h-510l-22 -125q-6 -37 -6 -69q0 -217 297 -217q104 0 192 32.5t146 96.5l43 -41q-68 -70 -167.5 -105.5t-213.5 -35.5q-174 0 -267.5 66.5t-93.5 195.5zM197 498 h510q88 0 125.5 46t37.5 152q0 111 -73.5 172.5t-206.5 61.5q-150 0 -246 -76t-121 -211z" />
<glyph unicode="f" horiz-adv-x="577" d="M104 0l199 1124q27 152 118 231t243 79h28l-8 -54h-29q-244 0 -290 -258l-29 -159h274l-10 -54h-272l-162 -909h-62z" />
<glyph unicode="g" horiz-adv-x="1128" d="M109 344q0 57 12 125l8 45q39 217 168 343t324 126q133 0 209.5 -53t107.5 -133l8 49q8 55 27.5 86t54.5 51l39 -37q-27 -16 -39 -35.5t-18 -50.5l-176 -997q-27 -150 -120 -231t-241 -81h-233l10 54h233q117 0 193 67.5t96 192.5l55 315q-55 -78 -148 -129t-224 -51 q-164 0 -255 90t-91 254zM172 354q0 -141 73.5 -221t209.5 -80q260 0 393 242l70 399q-49 236 -300 236q-168 0 -280.5 -110.5t-147.5 -305.5l-8 -45q-10 -51 -10 -115z" />
<glyph unicode="h" horiz-adv-x="1095" d="M100 0l236 1331q2 10 2 27q0 31 -29 59l43 37q47 -31 47 -94q0 -12 -4 -41l-110 -623q72 137 183.5 212t248.5 75q119 0 182.5 -64.5t63.5 -181.5q0 -47 -9 -88l-114 -649h-62l113 639q8 43 8 92q0 199 -199 199q-158 0 -272.5 -119t-171.5 -283l-94 -528h-62z" />
<glyph unicode="i" horiz-adv-x="456" d="M129 76q0 10 4 39l150 848h61l-151 -861q-2 -8 -3 -22q0 -35 31 -64l-43 -36q-49 41 -49 96zM309 1280q0 29 22.5 51.5t51.5 22.5q23 0 37 -14.5t14 -34.5q0 -29 -22.5 -51.5t-51.5 -22.5q-22 0 -36.5 14.5t-14.5 34.5z" />
<glyph unicode="j" horiz-adv-x="473" d="M-266 -449l10 54h90q119 0 193.5 67.5t97.5 190.5l192 1100h62l-193 -1100q-27 -147 -122 -229.5t-240 -82.5h-90zM344 1280q0 29 22.5 51.5t51.5 22.5q23 0 37 -13.5t14 -35.5q0 -29 -21.5 -51.5t-50.5 -22.5q-22 0 -37.5 14.5t-15.5 34.5z" />
<glyph unicode="k" horiz-adv-x="989" d="M100 0l234 1329q2 10 2 27q0 31 -29 59l39 37q51 -33 51 -94q0 -12 -4 -41l-164 -926l678 572h84l-420 -355q121 -14 163 -82.5t50 -177.5l25 -348h-61l-25 348q-6 63 -19.5 104.5t-57.5 71t-132 37.5l-297 -250l-55 -311h-62z" />
<glyph unicode="l" horiz-adv-x="434" d="M117 76q0 10 4 39l215 1216q2 10 2 27q0 31 -29 59l43 37q47 -31 47 -94q0 -12 -4 -41l-215 -1217q-2 -8 -2 -22q0 -35 31 -64l-43 -36q-49 41 -49 96z" />
<glyph unicode="m" horiz-adv-x="1703" d="M100 0l152 860q2 10 2 27q0 31 -29 59l43 37q47 -31 47 -94q0 -12 -4 -41l-28 -156q72 139 182 215t250 76q100 0 155.5 -65.5t55.5 -180.5q0 -33 -2 -49q63 139 174.5 217t249.5 78q104 0 163.5 -65.5t59.5 -180.5q0 -37 -6 -78l-117 -659h-62l113 639q8 43 8 92 q0 96 -44 147.5t-132 51.5q-164 0 -271.5 -123t-162.5 -285l-92 -522h-62l113 639q8 43 8 92q0 94 -43 146.5t-123 52.5q-166 0 -277.5 -124t-166.5 -284l-92 -522h-62z" />
<glyph unicode="n" horiz-adv-x="1095" d="M100 0l152 860q2 10 2 27q0 31 -29 59l43 37q47 -31 47 -94q0 -12 -4 -41l-26 -154q72 137 182.5 213t249.5 76q119 0 182.5 -64.5t63.5 -181.5q0 -47 -9 -88l-114 -649h-62l113 639q8 43 8 90q0 201 -199 201q-158 0 -273.5 -120t-172.5 -284l-92 -526h-62z" />
<glyph unicode="o" horiz-adv-x="1040" d="M102 266q0 27 9 80l47 270q33 176 148.5 271.5t293.5 95.5q158 0 248 -78t90 -211q0 -25 -8 -78l-47 -270q-29 -162 -137.5 -264t-305.5 -102q-170 0 -254 78.5t-84 207.5zM166 272q0 -109 65.5 -174t210.5 -65q168 0 261.5 88t117.5 225l47 270q6 41 6 74 q0 115 -70.5 177.5t-205.5 62.5q-154 0 -253 -82t-126 -232l-47 -270q-6 -37 -6 -74z" />
<glyph unicode="p" horiz-adv-x="1128" d="M23 -449l231 1309q2 8 2 23q0 35 -31 63l39 37q53 -35 53 -96q0 -10 -4 -39l-8 -43q63 88 155.5 133t205.5 45q176 0 264 -105.5t88 -267.5q0 -31 -8 -96l-11 -65q-35 -221 -167 -345t-322 -124q-133 0 -211 52t-109 128l-106 -609h-61zM207 276q23 -117 91.5 -180 t207.5 -63q172 0 286.5 112.5t143.5 303.5l10 65q8 47 8 98q0 147 -75.5 232.5t-212.5 85.5q-139 0 -230.5 -64.5t-156.5 -183.5z" />
<glyph unicode="q" horiz-adv-x="1089" d="M111 336q0 61 8 113l10 65q33 213 164 341t328 128q133 0 208.5 -50t108.5 -128l27 158h61l-248 -1412h-61l106 609q-133 -180 -366 -180q-166 0 -256 93t-90 263zM172 344q0 -145 73.5 -228t215.5 -83h2q249 0 381 237l74 420q-23 115 -92.5 177.5t-209.5 62.5 q-166 0 -281.5 -112.5t-144.5 -303.5l-10 -65q-8 -49 -8 -105z" />
<glyph unicode="r" horiz-adv-x="751" d="M102 0l152 860q2 8 2 25q0 35 -31 61l43 37q27 -18 38 -39.5t11 -52.5q0 -10 -4 -43l-37 -209q70 164 176.5 254t229.5 90h6q70 0 107 -22l-33 -66q-35 23 -100 23q-145 0 -254 -147.5t-168 -338.5l-76 -432h-62z" />
<glyph unicode="s" horiz-adv-x="905" d="M37 135l43 39q82 -141 280 -141q154 0 245 67.5t91 182.5q0 61 -41 97t-97 52.5t-152 32.5q-111 20 -177.5 69.5t-66.5 149.5q0 135 98 217t262 82q119 0 200 -39t112 -113l-46 -34q-66 133 -270 133q-131 0 -213 -66.5t-82 -175.5q0 -78 58.5 -112.5t164.5 -53.5 q147 -25 230.5 -74t83.5 -159q0 -145 -105.5 -227t-294.5 -82h-3q-237 0 -320 155z" />
<glyph unicode="t" horiz-adv-x="606" d="M125 168q0 29 6 61l176 1000q2 10 2 26q0 31 -28 60l38 37q51 -33 52 -95q0 -12 -4 -40l-45 -254h276l-8 -54h-277l-120 -680q-6 -27 -7 -53q0 -68 38 -105.5t108 -37.5h102l-10 -53h-92q-100 0 -153.5 49t-53.5 139z" />
<glyph unicode="u" horiz-adv-x="1110" d="M133 236q0 47 8 88l113 639h61l-112 -639q-8 -39 -8 -82q0 -100 54 -154.5t154 -54.5q111 0 202 60.5t152.5 152.5t92.5 190l92 527h62l-152 -861q-2 -6 -2 -18q0 -33 35 -68l-43 -36q-51 39 -51 100q0 23 2 35l24 139q-68 -121 -173 -197.5t-255 -76.5 q-119 0 -187.5 66.5t-68.5 189.5z" />
<glyph unicode="v" horiz-adv-x="897" d="M135 963h62l96 -760q12 -100 24.5 -135t51.5 -35t63.5 33.5t73.5 136.5l362 760h62l-363 -760q-61 -131 -99 -177t-101 -46q-48 0 -72.5 19t-37.5 65.5t-26 138.5z" />
<glyph unicode="w" horiz-adv-x="1292" d="M145 963h62l47 -910q33 2 54.5 18.5t37.5 49.5l367 739l104 -739q8 -66 70 -68l366 910h62l-391 -963h-33q-119 0 -131 106l-80 578l-289 -590q-43 -94 -162 -94h-32z" />
<glyph unicode="x" horiz-adv-x="864" d="M-33 0l434 494l-247 469h69l223 -426l375 426h70l-418 -476l256 -487h-70l-233 444l-389 -444h-70z" />
<glyph unicode="y" horiz-adv-x="1062" d="M141 236q0 47 9 90l94 534q2 8 2 23q0 35 -31 63l43 37q49 -31 49 -94q0 -12 -4 -41l-92 -522q-8 -41 -8 -84q0 -102 58 -155.5t171 -53.5q98 0 183 48t141.5 120.5t74.5 148.5l109 615h61l-194 -1104q-27 -150 -120 -230t-241 -80h-233l10 54h234q117 0 192.5 67.5 t95.5 190.5l58 323q-144 -206 -373 -206h-2q-141 0 -214 66.5t-73 189.5z" />
<glyph unicode="z" horiz-adv-x="921" d="M27 106l6 31l790 772h-635l11 54h714l-10 -50l-811 -792l-4 -19q-4 -23 12.5 -36t49.5 -13h614l-8 -53h-611q-120 0 -120 83q0 15 2 23z" />
<glyph unicode="{" horiz-adv-x="636" d="M115 662q98 35 149 90t66 135l82 456q20 113 76.5 161t164.5 48h60l-11 -57h-59q-76 0 -113.5 -36t-52.5 -116l-82 -456q-16 -80 -49 -129t-108 -96q45 -37 65.5 -76t20.5 -88q0 -27 -7 -62l-81 -456q-4 -20 -5 -54q0 -51 28 -74.5t89 -23.5h62l-11 -57h-61 q-90 0 -132 34.5t-42 108.5q0 29 6 66l82 456q4 33 4 47q0 66 -37 108t-104 71z" />
<glyph unicode="|" horiz-adv-x="450" d="M51 -328l336 1905h62l-336 -1905h-62z" />
<glyph unicode="}" horiz-adv-x="636" d="M-12 -229l10 57h61q76 0 114 36t52 116l82 456q14 80 47 129t111 97q-45 37 -65.5 75.5t-20.5 87.5q0 29 6 62l82 456q4 20 4 54q0 51 -27.5 74.5t-89.5 23.5h-61l10 57h62q90 0 132 -34.5t42 -108.5q0 -29 -7 -66l-81 -456q-4 -33 -5 -47q0 -66 37 -108t105 -70 q-98 -35 -149.5 -90.5t-65.5 -135.5l-82 -456q-20 -111 -76.5 -160t-165.5 -49h-61z" />
<glyph unicode="~" horiz-adv-x="1323" d="M106 559q39 113 121 174.5t197 61.5q84 0 144.5 -22.5t142.5 -65.5q80 -41 135 -61.5t129 -20.5q188 0 254 178h59q-39 -113 -121 -174.5t-196 -61.5q-84 0 -145.5 21.5t-141.5 66.5q-76 41 -132 61.5t-132 20.5q-188 0 -254 -178h-60z" />
<glyph unicode="&#xa2;" horiz-adv-x="978" d="M98 244q0 43 8 82l56 311q29 154 145.5 249t286.5 97l39 225h57l-39 -227q107 -6 178.5 -43t120.5 -111l-45 -39q-47 66 -106.5 100t-157.5 40l-158 -895q92 4 174 41t136 98l43 -41q-66 -70 -161 -109.5t-202 -41.5l-39 -226h-57l39 226q-158 8 -238 74.5t-80 189.5z M162 256q0 -211 264 -223l158 897q-139 -4 -238.5 -84t-122.5 -209l-55 -311q-6 -37 -6 -70z" />
<glyph unicode="&#xa3;" horiz-adv-x="1107" d="M39 0l10 57q170 88 257 219.5t87 298.5l-2 78h-237l10 58h223q-4 66 -4 96q0 176 56.5 310t163 208t249.5 74q102 0 171 -28t116 -83l-49 -45q-41 51 -98.5 74.5t-145.5 23.5q-104 0 -194.5 -55t-146.5 -176t-56 -303q0 -35 4 -96h389l-11 -58h-374l2 -69 q0 -174 -79 -307.5t-233 -219.5h795l-10 -57h-893z" />
<glyph unicode="&#xa5;" horiz-adv-x="1128" d="M141 326l9 51h366l39 215l-2 4h-365l11 51h333l-333 787h71l328 -779l596 779h72l-602 -787h337l-10 -51h-366l-4 -4l-39 -215h370l-8 -51h-371l-57 -326h-65l57 326h-367z" />
<glyph unicode="&#xa8;" d="M524 1200q0 27 21.5 48.5t50.5 21.5q20 0 34.5 -14.5t14.5 -34.5q0 -27 -22.5 -48.5t-49.5 -21.5q-20 0 -34.5 14.5t-14.5 34.5zM840 1200q0 27 21.5 48.5t49.5 21.5q20 0 35 -14.5t15 -34.5q0 -27 -23 -48.5t-49 -21.5q-21 0 -35 14.5t-14 34.5z" />
<glyph unicode="&#xa9;" horiz-adv-x="1671" d="M127 561q0 248 114.5 452t314.5 322.5t443 118.5q190 0 333 -71.5t218.5 -202.5t75.5 -308q0 -248 -114.5 -452.5t-315.5 -322t-444 -117.5q-191 0 -332 71.5t-217 203.5t-76 306zM186 561q0 -248 150.5 -389t419.5 -141q229 0 414.5 109.5t291 302t105.5 429.5 q0 248 -150.5 389.5t-419.5 141.5q-229 0 -414.5 -109.5t-291 -302t-105.5 -430.5zM436 496q0 35 6 73l56 312q29 156 151.5 251t302.5 95q133 0 211 -42t123 -114l-51 -39q-51 76 -111.5 109t-177.5 33q-152 0 -258 -81t-129 -212l-55 -312q-6 -33 -6 -65 q0 -111 75.5 -169.5t219.5 -58.5q221 0 344 140l37 -41q-80 -82 -172.5 -117t-213.5 -35q-170 0 -261 71t-91 202z" />
<glyph unicode="&#xab;" horiz-adv-x="1067" d="M90 532q156 57 294 159t204 204h69q-63 -102 -188 -203.5t-256 -159.5q111 -59 201 -160.5t116 -201.5h-69q-29 102 -133.5 204.5t-237.5 157.5zM408 532q156 57 294 159t203 204h70q-64 -102 -188.5 -203.5t-256.5 -159.5q111 -59 201 -160.5t117 -201.5h-70 q-29 102 -133 204.5t-237 157.5z" />
<glyph unicode="&#xad;" horiz-adv-x="759" d="M123 477l10 58h514l-10 -58h-514z" />
<glyph unicode="&#xae;" horiz-adv-x="1073" d="M176 915q0 150 70.5 274t192.5 194.5t272 70.5q174 0 273 -96t99 -258q0 -150 -69.5 -272.5t-190.5 -194.5t-270 -72q-174 0 -275.5 96.5t-101.5 257.5zM225 915q0 -143 89 -227t247 -84q135 0 242.5 64.5t169 178.5t61.5 253q0 145 -87 228t-245 83q-135 0 -243.5 -64.5 t-171 -177t-62.5 -254.5zM393 743l94 537h248q59 0 96 -35t37 -88q0 -66 -40 -107.5t-109 -56.5q35 -12 48 -36.5t17 -69.5l13 -144h-49l-13 144q-4 51 -26.5 72.5t-83.5 21.5h-142l-41 -238h-49zM489 1022h197q59 0 96 38t37 95q0 41 -25.5 61.5t-68.5 20.5h-197z" />
<glyph unicode="&#xb4;" d="M711 1137l213 282h77l-235 -282h-55z" />
<glyph unicode="&#xb8;" d="M301 -328l21 49q59 -29 137 -28q72 0 104.5 21.5t32.5 66.5q0 57 -102 57q-12 0 -58 -4l76 180h61l-55 -125q66 -2 102.5 -29.5t36.5 -78.5q0 -72 -53 -106.5t-149 -34.5q-94 0 -154 32z" />
<glyph unicode="&#xbb;" horiz-adv-x="1067" d="M111 170q63 100 188 202.5t256 159.5q-111 57 -200 159t-117 204h69q29 -102 133.5 -204.5t237.5 -158.5q-154 -57 -294 -158.5t-204 -203.5h-69zM426 170q63 100 188 202.5t256 159.5q-111 57 -199.5 159t-117.5 204h70q28 -102 132.5 -204.5t237.5 -158.5 q-154 -57 -294 -158.5t-203 -203.5h-70z" />
<glyph unicode="&#x2c6;" d="M457 1137q75 49 167.5 135t143.5 162h29q27 -78 87 -166t117 -131h-73q-47 41 -94.5 111.5t-63.5 113.5q-25 -39 -100.5 -111.5t-139.5 -113.5h-73z" />
<glyph unicode="&#x2da;" d="M578 1251q0 90 58 147.5t148 57.5q70 0 110 -38t40 -101q0 -90 -58.5 -147.5t-148.5 -57.5q-70 0 -109.5 38t-39.5 101zM631 1255q0 -45 27.5 -70.5t76.5 -25.5q64 0 105 44t41 110q0 45 -28 70.5t-77 25.5q-61 0 -103 -44t-42 -110z" />
<glyph unicode="&#x2dc;" d="M438 1137q17 71 65 118.5t122 47.5q41 0 71.5 -14.5t73.5 -41.5q37 -23 58.5 -34t48.5 -11q49 0 75.5 24.5t48.5 76.5h50q-16 -68 -63.5 -113t-121.5 -45q-41 0 -71.5 14.5t-73.5 40.5q-37 23 -58.5 34t-48.5 11q-49 0 -76.5 -25.5t-50.5 -82.5h-49z" />
<glyph unicode="&#x2000;" horiz-adv-x="839" />
<glyph unicode="&#x2001;" horiz-adv-x="1679" />
<glyph unicode="&#x2002;" horiz-adv-x="839" />
<glyph unicode="&#x2003;" horiz-adv-x="1679" />
<glyph unicode="&#x2004;" horiz-adv-x="559" />
<glyph unicode="&#x2005;" horiz-adv-x="419" />
<glyph unicode="&#x2006;" horiz-adv-x="279" />
<glyph unicode="&#x2007;" horiz-adv-x="279" />
<glyph unicode="&#x2008;" horiz-adv-x="209" />
<glyph unicode="&#x2009;" horiz-adv-x="335" />
<glyph unicode="&#x200a;" horiz-adv-x="93" />
<glyph unicode="&#x2010;" horiz-adv-x="759" d="M123 477l10 58h514l-10 -58h-514z" />
<glyph unicode="&#x2011;" horiz-adv-x="759" d="M123 477l10 58h514l-10 -58h-514z" />
<glyph unicode="&#x2012;" horiz-adv-x="759" d="M123 477l10 58h514l-10 -58h-514z" />
<glyph unicode="&#x2013;" horiz-adv-x="1390" d="M123 477l10 58h1145l-10 -58h-1145z" />
<glyph unicode="&#x2014;" horiz-adv-x="2226" d="M123 477l10 58h1981l-11 -58h-1980z" />
<glyph unicode="&#x2018;" horiz-adv-x="372" d="M244 1202q0 70 44 146.5t115 132.5l23 -27q-97 -88 -117 -186q20 12 41 12q18 0 29.5 -12.5t11.5 -32.5q0 -35 -27.5 -64.5t-60.5 -29.5q-29 0 -44 16.5t-15 44.5z" />
<glyph unicode="&#x2019;" horiz-adv-x="370" d="M234 1140q96 88 117 187q-20 -12 -41 -12q-18 0 -29.5 12t-11.5 33q0 35 27.5 64.5t60.5 29.5q29 0 44 -16.5t15 -45.5q0 -70 -44 -146.5t-116 -131.5z" />
<glyph unicode="&#x201a;" horiz-adv-x="370" d="M-2 -195q96 88 117 187q-20 -12 -41 -12q-18 0 -29.5 12t-11.5 33q0 35 27.5 64.5t60.5 29.5q29 0 44 -16.5t15 -45.5q0 -70 -44 -146.5t-116 -131.5z" />
<glyph unicode="&#x201c;" horiz-adv-x="602" d="M244 1202q0 70 44 146.5t115 132.5l23 -27q-96 -88 -117 -186q20 12 41 12q18 0 29.5 -12.5t11.5 -32.5q0 -35 -27.5 -64.5t-60.5 -29.5q-29 0 -44 16.5t-15 44.5zM473 1202q0 70 44 146.5t116 132.5l22 -27q-96 -88 -116 -186q20 12 41 12q18 0 29.5 -12.5t11.5 -32.5 q0 -35 -28 -64.5t-61 -29.5q-29 0 -44 16.5t-15 44.5z" />
<glyph unicode="&#x201d;" horiz-adv-x="600" d="M234 1140q96 88 117 187q-20 -12 -41 -12q-18 0 -29.5 12t-11.5 33q0 35 27.5 64.5t60.5 29.5q29 0 44 -16.5t15 -45.5q0 -70 -44 -146.5t-116 -131.5zM463 1140q96 88 117 187q-20 -12 -41 -12q-18 0 -29.5 12t-11.5 33q0 35 27.5 64.5t60.5 29.5q29 0 44 -16.5 t15 -45.5q0 -70 -44 -146.5t-116 -131.5z" />
<glyph unicode="&#x201e;" horiz-adv-x="600" d="M-2 -195q96 88 117 187q-20 -12 -41 -12q-18 0 -29.5 12t-11.5 33q0 35 27.5 64.5t60.5 29.5q29 0 44 -16.5t15 -45.5q0 -70 -44 -146.5t-116 -131.5zM227 -195q96 88 117 187q-20 -12 -41 -12q-18 0 -29.5 12t-11.5 33q0 35 27.5 64.5t60.5 29.5q29 0 44 -16.5t15 -45.5 q0 -70 -44 -146.5t-116 -131.5z" />
<glyph unicode="&#x2022;" horiz-adv-x="856" d="M207 588q0 72 41 138.5t108.5 107t141.5 40.5q88 0 146 -58t58 -144q0 -72 -40.5 -138.5t-108.5 -106.5t-141 -40q-90 0 -147.5 57.5t-57.5 143.5z" />
<glyph unicode="&#x2026;" horiz-adv-x="1265" d="M66 37q0 33 25.5 57.5t58.5 24.5q25 0 41 -16.5t16 -41.5q0 -33 -25.5 -57t-56.5 -24q-27 0 -43 16t-16 41zM486 37q0 33 25.5 57.5t58.5 24.5q25 0 41 -16.5t16 -41.5q0 -33 -25.5 -57t-56.5 -24q-27 0 -43 16t-16 41zM906 37q0 33 25.5 57.5t58.5 24.5q25 0 41 -16.5 t16 -41.5q0 -33 -25.5 -57t-56.5 -24q-27 0 -43 16t-16 41z" />
<glyph unicode="&#x202f;" horiz-adv-x="335" />
<glyph unicode="&#x2039;" horiz-adv-x="749" d="M90 532q156 57 294 159t204 204h69q-63 -102 -188 -203.5t-256 -159.5q111 -59 201 -160.5t116 -201.5h-69q-29 102 -133.5 204.5t-237.5 157.5z" />
<glyph unicode="&#x203a;" horiz-adv-x="749" d="M111 170q63 100 187 202.5t255 159.5q-111 57 -199 159t-116 204h69q29 -104 132.5 -205.5t236.5 -157.5q-154 -57 -293 -158.5t-203 -203.5h-69z" />
<glyph unicode="&#x205f;" horiz-adv-x="419" />
<glyph unicode="&#x20ac;" horiz-adv-x="1329" d="M47 567l8 51h158l39 220h-158l10 51h158l8 47q45 252 207 386t420 134q338 0 473 -211l-53 -39q-117 193 -424 193q-227 0 -372.5 -120t-184.5 -343l-8 -47h628l-10 -51h-629l-38 -220h628l-8 -51h-629l-12 -67q-10 -66 -10 -111q0 -170 108.5 -261t313.5 -91 q162 0 282.5 50t210.5 146l37 -43q-106 -111 -233 -160.5t-301 -49.5q-233 0 -359.5 103t-126.5 296q0 57 13 121l12 67h-158z" />
<glyph unicode="&#x2122;" horiz-adv-x="1777" d="M231 1386l9 48h616l-8 -48h-281l-141 -804h-55l141 804h-281zM846 582l149 852h37q35 0 57.5 -10.5t36.5 -47.5l154 -444l311 444q25 37 49.5 47.5t57.5 10.5h43l-150 -852h-51l141 802q-31 4 -61 -41l-358 -512l-179 512q-2 4 -6 16.5t-13 18.5t-24 6l-141 -802h-53z " />
<glyph unicode="&#x25fc;" horiz-adv-x="962" d="M0 0v963h963v-963h-963z" />
</font>
</defs>
</svg>
